<?xml version="1.0" standalone="no"?><!DOCTYPE svg PUBLIC "-//W3C//DTD SVG 1.1//EN" "http://www.w3.org/Graphics/SVG/1.1/DTD/svg11.dtd" ><svg xmlns="http://www.w3.org/2000/svg"><metadata></metadata><defs><font id="H&FJ: Gotham Book: 1.200" horiz-adv-x="1211"><font-face font-family="Gotham Book" font-weight="325" font-stretch="normal" units-per-em="1000" panose-1="2 0 6 4 4 0 0 2 0 4" ascent="800" descent="-200" x-height="4" bbox="-40 -244 1158 994" underline-thickness="20" underline-position="-143" unicode-range="U+0020-fb04" /><missing-glyph horiz-adv-x="500" d="M0 -200 l0 1000 l500 0 l0 -1000 l-500 0 ZM71 750 l179 -390 l179 390 l-358 0 ZM50 -76 l172 376 l-172 376 l0 -752 ZM450 676 l-172 -376 l172 -376 l0 752 ZM250 240 l-179 -390 l358 0 l-179 390 Z" /><glyph glyph-name="exclam" unicode="!" d="M114 198 l-23 445 l0 57 l90 0 l0 -57 l-24 -445 l-43 0 ZM90 0 l0 105 l92 0 l0 -105 l-92 0 Z" /><glyph glyph-name="quotedbl" unicode="&quot;" d="M260 428 l31 272 l92 0 l0 -5 l-81 -267 l-42 0 ZM65 428 l30 272 l93 0 l0 -5 l-81 -267 l-42 0 Z" /><glyph glyph-name="numbersign" unicode="#" d="M124 0 l30 177 l-109 0 l0 69 l121 0 l37 212 l-119 0 l0 69 l130 0 l30 173 l70 0 l-29 -173 l190 0 l30 173 l70 0 l-29 -173 l108 0 l0 -69 l-120 0 l-37 -212 l118 0 l0 -69 l-129 0 l-31 -177 l-70 0 l30 177 l-190 0 l-31 -177 l-70 0 ZM237 246 l190 0 l36 212 l-190 0 l-36 -212 Z" /><glyph glyph-name="dollar" unicode="$" d="M292 -98 l0 100 q-129 12 -236 103 l45 60 q94 -84 194 -95 l0 250 q-112 27 -162.5 72 q-50.5 45 -50.5 122 l0 2 q0 77 58.5 128 q58.5 51 151.5 56 l0 58 l64 0 l0 -60 q100 -9 191 -80 l-43 -60 q-68 58 -151 72 l0 -246 q114 -26 165 -72 q51 -46 51 -122 l0 -2 q0 -80 -59 -131 q-59 -51 -154 -57 l0 -98 l-64 0 ZM295 398 l0 235 q-62 -2 -99 -33.5 q-37 -31.5 -37 -78.5 l0 -2 q0 -45 29 -73 q29 -28 107 -48 ZM353 67 q63 3 101 35 q38 32 38 81 l0 2 q0 46 -29.5 74 q-29.5 28 -109.5 47 l0 -239 Z" /><glyph glyph-name="percent" unicode="%" d="M324 403 q-45 -53 -114 -53 q-69 0 -113.5 52 q-44.5 52 -44.5 125 l0 2 q0 73 45 126 q45 53 115 53 q69 0 113 -52 q44 -52 44 -125 l0 -2 q0 -73 -45 -126 ZM124 0 l514 700 l71 0 l-513 -700 l-72 0 ZM622 -8 q-69 0 -113 52 q-44 52 -44 125 l0 2 q0 73 45 126 q45 53 114 53 q69 0 113 -52 q44 -52 44 -125 l0 -2 q0 -74 -44.5 -126.5 q-44.5 -52.5 -114.5 -52.5 ZM212 406 q40 0 65.5 35 q25.5 35 25.5 86 l0 2 q0 52 -27 87.5 q-27 35.5 -66 35.5 q-40 0 -65.5 -35 q-25.5 -35 -25.5 -86 l0 -2 q0 -52 27 -87.5 q27 -35.5 66 -35.5 ZM624 48 q40 0 65.5 35 q25.5 35 25.5 86 l0 2 q0 52 -27 87.5 q-27 35.5 -66 35.5 q-40 0 -65.5 -35 q-25.5 -35 -25.5 -86 l0 -2 q0 -52 27 -87.5 q27 -35.5 66 -35.5 Z" /><glyph glyph-name="ampersand" unicode="&amp;" d="M604 -14 l-110 113 q-101 -109 -229 -109 q-95 0 -157.5 54.5 q-62.5 54.5 -62.5 141.5 l0 2 q0 136 169 202 q-70 82 -70 154 l0 2 q0 70 51.5 118 q51.5 48 133.5 48 q73 0 121.5 -46 q48.5 -46 48.5 -112 l0 -2 q0 -124 -165 -182 l160 -163 q45 65 84 156 l65 -30 q-53 -113 -101 -176 l122 -125 l-60 -46 ZM290 415 q135 46 135 133 l0 2 q0 42 -28 69.5 q-28 27.5 -71 27.5 q-47 0 -76.5 -29 q-29.5 -29 -29.5 -72 l0 -2 q0 -31 15 -58.5 q15 -27.5 55 -70.5 ZM271 57 q92 0 175 91 l-187 193 q-67 -25 -100.5 -64.5 q-33.5 -39.5 -33.5 -85.5 l0 -2 q0 -57 41 -94.5 q41 -37.5 105 -37.5 Z" /><glyph glyph-name="quotesingle" unicode="&#39;" d="M65 428 l30 272 l94 0 l0 -5 l-81 -267 l-43 0 Z" /><glyph glyph-name="parenleft" unicode="(" d="M345 -141 q-277 156 -277 428 q0 272 277 428 l33 -51 q-232 -148 -232 -377 q0 -229 232 -377 l-33 -51 Z" /><glyph glyph-name="parenright" unicode=")" d="M89 -141 l-33 51 q232 148 232 377 q0 229 -232 377 l33 51 q277 -156 277 -428 q0 -272 -277 -428 Z" /><glyph glyph-name="asterisk" unicode="*" d="M189 397 l10 125 l-103 -73 l-27 47 l116 53 l-116 54 l27 46 l103 -72 l-10 125 l52 0 l-10 -125 l103 72 l27 -46 l-116 -54 l116 -53 l-27 -47 l-103 73 l10 -125 l-52 0 Z" /><glyph glyph-name="plus" unicode="+" d="M275 110 l0 206 l-207 0 l0 72 l207 0 l0 206 l75 0 l0 -206 l207 0 l0 -72 l-207 0 l0 -206 l-75 0 Z" /><glyph glyph-name="comma" unicode="," d="M58 -122 l-12 35 q73 26 67 87 l-36 0 l0 105 l92 0 l0 -90 q0 -60 -26.5 -92 q-26.5 -32 -84.5 -45 Z" /><glyph glyph-name="hyphen" unicode="-" d="M65 260 l0 81 l278 0 l0 -81 l-278 0 Z" /><glyph glyph-name="period" unicode="." d="M77 0 l0 105 l92 0 l0 -105 l-92 0 Z" /><glyph glyph-name="slash" unicode="/" d="M-21 -128 l464 926 l71 0 l-464 -926 l-71 0 Z" /><glyph glyph-name="zero" unicode="0" d="M571 93.5 q-82 -105.5 -214 -105.5 q-132 0 -213.5 104.5 q-81.5 104.5 -81.5 255.5 l0 2 q0 151 82.5 256.5 q82.5 105.5 214.5 105.5 q132 0 213 -104.5 q81 -104.5 81 -255.5 l0 -2 q0 -151 -82 -256.5 ZM204 145.5 q60 -85.5 155 -85.5 q95 0 153.5 84.5 q58.5 84.5 58.5 203.5 l0 2 q0 119 -59.5 204.5 q-59.5 85.5 -154.5 85.5 q-95 0 -154 -84 q-59 -84 -59 -204 l0 -2 q0 -119 60 -204.5 Z" /><glyph glyph-name="one" unicode="1" d="M179 0 l0 623 l-132 -41 l-19 64 l171 59 l58 0 l0 -705 l-78 0 Z" /><glyph glyph-name="two" unicode="2" d="M48 0 l0 61 l254 224 q82 73 114 120.5 q32 47.5 32 99.5 q0 60 -41 97 q-41 37 -100 37 q-57 0 -100.5 -29 q-43.5 -29 -87.5 -91 l-58 42 q51 76 108 112.5 q57 36.5 144 36.5 q94 0 155.5 -56 q61.5 -56 61.5 -142 l0 -2 q0 -73 -39 -129.5 q-39 -56.5 -138 -142.5 l-187 -166 l371 0 l0 -72 l-489 0 Z" /><glyph glyph-name="three" unicode="3" d="M311 -12 q-165 0 -261 125 l57 51 q85 -104 205 -104 q65 0 109 38 q44 38 44 98 l0 2 q0 64 -54 99.5 q-54 35.5 -142 35.5 l-45 0 l-16 47 l221 249 l-342 0 l0 71 l447 0 l0 -58 l-220 -244 q100 -8 165.5 -57.5 q65.5 -49.5 65.5 -139.5 l0 -2 q0 -92 -67.5 -151.5 q-67.5 -59.5 -166.5 -59.5 Z" /><glyph glyph-name="four" unicode="4" d="M432 0 l0 166 l-369 0 l-20 57 l396 482 l69 0 l0 -473 l109 0 l0 -66 l-109 0 l0 -166 l-76 0 ZM138 232 l294 0 l0 361 l-294 -361 Z" /><glyph glyph-name="five" unicode="5" d="M303 -12 q-139 0 -250 111 l52 57 q99 -96 199 -96 q74 0 121.5 44 q47.5 44 47.5 111 l0 2 q0 65 -48.5 106 q-48.5 41 -125.5 41 q-72 0 -147 -40 l-53 35 l20 341 l403 0 l0 -73 l-334 0 l-15 -224 q71 31 138 31 q105 0 173.5 -58 q68.5 -58 68.5 -156 l0 -2 q0 -102 -70 -166 q-70 -64 -180 -64 Z" /><glyph glyph-name="six" unicode="6" d="M333 -12 q-113 0 -184 71 q-45 45 -66.5 107 q-21.5 62 -21.5 164 l0 2 q0 164 78.5 272 q78.5 108 212.5 108 q109 0 207 -80 l-46 -61 q-82 69 -165 69 q-94 0 -150 -86 q-56 -86 -55 -223 q73 107 199 107 q101 0 171.5 -59.5 q70.5 -59.5 70.5 -155.5 l0 -2 q0 -101 -72 -167 q-72 -66 -179 -66 ZM334 58 q76 0 122.5 46 q46.5 46 46.5 114 l0 2 q0 65 -48 107.5 q-48 42.5 -123 42.5 q-76 0 -125.5 -46 q-49.5 -46 -49.5 -107 l0 -2 q0 -67 50 -112 q50 -45 127 -45 Z" /><glyph glyph-name="seven" unicode="7" d="M137 0 l316 628 l-385 0 l0 72 l475 0 l0 -59 l-318 -641 l-88 0 Z" /><glyph glyph-name="eight" unicode="8" d="M503 45.5 q-75 -55.5 -188 -55.5 q-113 0 -188 55.5 q-75 55.5 -75 142.5 l0 2 q0 60 39 104 q39 44 105 68 q-120 55 -120 161 l0 2 q0 79 70.5 132 q70.5 53 168.5 53 q98 0 168.5 -53 q70.5 -53 70.5 -132 l0 -2 q0 -106 -120 -161 q66 -25 105 -68 q39 -43 39 -103 l0 -2 q0 -88 -75 -143.5 ZM201 426 q46 -36 114 -36 q68 0 114 36 q46 36 46 92 l0 2 q0 52 -46 86.5 q-46 34.5 -114 34.5 q-69 0 -114.5 -34.5 q-45.5 -34.5 -45.5 -86.5 l0 -2 q0 -56 46 -92 ZM181.5 97 q49.5 -38 133.5 -38 q84 0 133.5 38 q49.5 38 49.5 93 l0 2 q0 58 -53 95.5 q-53 37.5 -130 37.5 q-77 0 -130 -37.5 q-53 -37.5 -53 -95.5 l0 -2 q0 -55 49.5 -93 Z" /><glyph glyph-name="nine" unicode="9" d="M295 -12 q-112 0 -216 86 l46 61 q85 -75 172 -75 q94 0 152 86 q58 86 56 221 q-70 -112 -198 -112 q-108 0 -176 61 q-68 61 -68 156 l0 2 q0 101 71 169.5 q71 68.5 181 68.5 q112 0 184 -72 q87 -87 87 -271 l0 -2 q0 -167 -81 -273 q-81 -106 -210 -106 ZM316 323 q77 0 125.5 47.5 q48.5 47.5 48.5 110.5 l0 2 q0 68 -50 113.5 q-50 45.5 -128 45.5 q-76 0 -122 -48 q-46 -48 -46 -116 l0 -2 q0 -67 48 -110 q48 -43 124 -43 Z" /><glyph glyph-name="colon" unicode=":" d="M82 412 l0 105 l92 0 l0 -105 l-92 0 ZM82 0 l0 105 l92 0 l0 -105 l-92 0 Z" /><glyph glyph-name="semicolon" unicode=";" d="M82 412 l0 105 l92 0 l0 -105 l-92 0 ZM63 -122 l-12 35 q73 26 67 87 l-36 0 l0 105 l92 0 l0 -90 q0 -60 -26.5 -92 q-26.5 -32 -84.5 -45 Z" /><glyph glyph-name="less" unicode="&lt;" d="M534 86 l-470 233 l0 66 l470 233 l0 -77 l-386 -188 l386 -189 l0 -78 Z" /><glyph glyph-name="equal" unicode="=" d="M80 432 l0 74 l465 0 l0 -74 l-465 0 ZM80 198 l0 74 l465 0 l0 -74 l-465 0 Z" /><glyph glyph-name="greater" unicode="&gt;" d="M92 86 l0 77 l385 188 l-385 189 l0 78 l469 -233 l0 -66 l-469 -233 Z" /><glyph glyph-name="question" unicode="?" d="M220 198 l-15 162 l5 5 q96 2 147.5 39.5 q51.5 37.5 51.5 101.5 l0 2 q0 55 -40 92.5 q-40 37.5 -106 37.5 q-101 0 -182 -94 l-51 49 q96 116 235 116 q100 0 162 -56 q62 -56 62 -142 l0 -2 q0 -89 -58 -139.5 q-58 -50.5 -150 -63.5 l-10 -108 l-51 0 ZM199 0 l0 105 l92 0 l0 -105 l-92 0 Z" /><glyph glyph-name="at" unicode="@" d="M499 -162 q-190 0 -318 127.5 q-128 127.5 -128 308.5 q0 180 127.5 309 q127.5 129 310.5 129 q181 0 308.5 -118.5 q127.5 -118.5 127.5 -277.5 q0 -119 -55.5 -182 q-55.5 -63 -131.5 -63 q-53 0 -89 22.5 q-36 22.5 -51 61.5 q-71 -84 -165 -84 q-75 0 -127 50.5 q-52 50.5 -52 131.5 q0 103 71.5 176 q71.5 73 159.5 73 q99 0 146 -83 l13 69 l67 -9 l-40 -227 q-7 -39 -7 -61 q0 -38 22.5 -59.5 q22.5 -21.5 62.5 -21.5 q58 0 99 53 q41 53 41 153 q0 142 -116.5 252 q-116.5 110 -283.5 110 q-171 0 -286.5 -118 q-115.5 -118 -115.5 -286 q0 -169 116 -285.5 q116 -116.5 294 -116.5 q133 0 249 68 l16 -27 q-123 -75 -265 -75 ZM450 133 q64 0 114 54.5 q50 54.5 50 125.5 q0 55 -34.5 91 q-34.5 36 -87.5 36 q-65 0 -114.5 -53 q-49.5 -53 -49.5 -129 q0 -58 34 -91.5 q34 -33.5 88 -33.5 Z" /><glyph glyph-name="A" unicode="A" d="M39 0 l319 705 l74 0 l319 -705 l-85 0 l-82 185 l-381 0 l-83 -185 l-81 0 ZM234 256 l319 0 l-159 357 l-160 -357 Z" /><glyph glyph-name="B" unicode="B" d="M99 0 l0 700 l298 0 q119 0 183 -62 q45 -47 45 -112 l0 -2 q0 -114 -111 -162 q150 -45 150 -169 l0 -2 q0 -89 -69 -140 q-69 -51 -185 -51 l-311 0 ZM177 388 l207 0 q73 0 117 32.5 q44 32.5 44 92.5 l0 2 q0 53 -40.5 83.5 q-40.5 30.5 -114.5 30.5 l-213 0 l0 -241 ZM177 71 l235 0 q80 0 126 33.5 q46 33.5 46 91.5 l0 2 q0 58 -47.5 89 q-47.5 31 -138.5 31 l-221 0 l0 -247 Z" /><glyph glyph-name="C" unicode="C" d="M419 -12 q-150 0 -250.5 104 q-100.5 104 -100.5 256 l0 2 q0 151 101 256.5 q101 105.5 253 105.5 q89 0 152 -28 q63 -28 121 -83 l-54 -58 q-101 96 -220 96 q-116 0 -193.5 -83 q-77.5 -83 -77.5 -204 l0 -2 q0 -122 78 -205.5 q78 -83.5 193 -83.5 q68 0 120 25 q52 25 106 76 l52 -51 q-60 -61 -125 -92 q-65 -31 -155 -31 Z" /><glyph glyph-name="D" unicode="D" d="M99 0 l0 700 l243 0 q163 0 267.5 -99.5 q104.5 -99.5 104.5 -248.5 l0 -2 q0 -150 -104.5 -250 q-104.5 -100 -267.5 -100 l-243 0 ZM178 73 l164 0 q130 0 210 78 q80 78 80 197 l0 2 q0 119 -80 198 q-80 79 -210 79 l-164 0 l0 -554 Z" /><glyph glyph-name="E" unicode="E" d="M99 0 l0 700 l506 0 l0 -72 l-427 0 l0 -239 l382 0 l0 -72 l-382 0 l0 -245 l432 0 l0 -72 l-511 0 Z" /><glyph glyph-name="F" unicode="F" d="M99 0 l0 700 l503 0 l0 -73 l-424 0 l0 -250 l379 0 l0 -72 l-379 0 l0 -305 l-79 0 Z" /><glyph glyph-name="G" unicode="G" d="M705 95 q-120 -107 -281 -107 q-161 0 -258.5 103 q-97.5 103 -97.5 257 l0 2 q0 148 99 255 q99 107 252 107 q84 0 144.5 -23 q60.5 -23 116.5 -70 l-51 -60 q-92 80 -213 80 q-114 0 -190 -84 q-76 -84 -76 -203 l0 -2 q0 -127 75.5 -209 q75.5 -82 201.5 -82 q116 0 202 70 l0 174 l-213 0 l0 71 l289 0 l0 -279 Z" /><glyph glyph-name="H" unicode="H" d="M99 0 l0 700 l79 0 l0 -311 l404 0 l0 311 l79 0 l0 -700 l-79 0 l0 315 l-404 0 l0 -315 l-79 0 Z" /><glyph glyph-name="I" unicode="I" d="M106 0 l0 700 l79 0 l0 -700 l-79 0 Z" /><glyph glyph-name="J" unicode="J" d="M247 -10 q-140 0 -216 124 l57 49 q34 -51 70.5 -75.5 q36.5 -24.5 89.5 -24.5 q61 0 99 43.5 q38 43.5 38 124.5 l0 469 l80 0 l0 -468 q0 -120 -64 -184 q-60 -58 -154 -58 Z" /><glyph glyph-name="K" unicode="K" d="M99 0 l0 700 l79 0 l0 -418 l402 418 l102 0 l-300 -306 l313 -394 l-99 0 l-269 339 l-149 -151 l0 -188 l-79 0 Z" /><glyph glyph-name="L" unicode="L" d="M99 0 l0 700 l79 0 l0 -627 l394 0 l0 -73 l-473 0 Z" /><glyph glyph-name="M" unicode="M" d="M99 0 l0 700 l80 0 l255 -382 l255 382 l80 0 l0 -700 l-79 0 l0 567 l-255 -375 l-4 0 l-255 374 l0 -566 l-77 0 Z" /><glyph glyph-name="N" unicode="N" d="M99 0 l0 700 l74 0 l441 -561 l0 561 l77 0 l0 -700 l-63 0 l-452 574 l0 -574 l-77 0 Z" /><glyph glyph-name="O" unicode="O" d="M681 94.5 q-101 -106.5 -257 -106.5 q-156 0 -256 105.5 q-100 105.5 -100 254.5 l0 2 q0 149 101 255.5 q101 106.5 257 106.5 q156 0 256 -105.5 q100 -105.5 100 -254.5 l0 -2 q0 -149 -101 -255.5 ZM228.5 145 q78.5 -84 197.5 -84 q119 0 196.5 83 q77.5 83 77.5 204 l0 2 q0 121 -78.5 205 q-78.5 84 -197.5 84 q-119 0 -196.5 -83 q-77.5 -83 -77.5 -204 l0 -2 q0 -121 78.5 -205 Z" /><glyph glyph-name="P" unicode="P" d="M99 0 l0 700 l262 0 q119 0 190.5 -59.5 q71.5 -59.5 71.5 -162.5 l0 -2 q0 -109 -78.5 -169 q-78.5 -60 -196.5 -60 l-170 0 l0 -247 l-79 0 ZM178 319 l173 0 q87 0 139.5 42.5 q52.5 42.5 52.5 111.5 l0 2 q0 73 -50.5 112.5 q-50.5 39.5 -137.5 39.5 l-177 0 l0 -308 Z" /><glyph glyph-name="Q" unicode="Q" d="M737 -21 l-92 84 q-94 -75 -221 -75 q-156 0 -256 105.5 q-100 105.5 -100 254.5 l0 2 q0 149 101 255.5 q101 106.5 257 106.5 q156 0 256 -105.5 q100 -105.5 100 -254.5 l0 -2 q0 -135 -84 -235 l93 -77 l-54 -59 ZM426 61 q92 0 161 53 l-130 111 l53 59 l129 -117 q61 79 61 181 l0 2 q0 121 -78.5 205 q-78.5 84 -197.5 84 q-119 0 -196.5 -83 q-77.5 -83 -77.5 -204 l0 -2 q0 -121 78.5 -205 q78.5 -84 197.5 -84 Z" /><glyph glyph-name="R" unicode="R" d="M99 0 l0 700 l301 0 q129 0 199 -70 q54 -54 54 -138 l0 -2 q0 -84 -52 -136 q-52 -52 -138 -68 l215 -286 l-97 0 l-203 272 l-200 0 l0 -272 l-79 0 ZM178 343 l215 0 q80 0 130 39 q50 39 50 105 l0 2 q0 65 -47.5 101.5 q-47.5 36.5 -131.5 36.5 l-216 0 l0 -284 Z" /><glyph glyph-name="S" unicode="S" d="M339 -10 q-161 0 -286 112 l49 58 q56 -51 112.5 -75 q56.5 -24 127.5 -24 q70 0 113 33.5 q43 33.5 43 85.5 l0 2 q0 51 -38 81 q-38 30 -144 52 q-124 27 -179.5 72.5 q-55.5 45.5 -55.5 129.5 l0 2 q0 83 65 137 q65 54 165 54 q139 0 246 -86 l-46 -61 q-93 76 -202 76 q-67 0 -108 -32.5 q-41 -32.5 -41 -80.5 l0 -2 q0 -52 39.5 -82 q39.5 -30 150.5 -54 q119 -26 173.5 -72.5 q54.5 -46.5 54.5 -125.5 l0 -2 q0 -89 -67 -143.5 q-67 -54.5 -172 -54.5 Z" /><glyph glyph-name="T" unicode="T" d="M284 0 l0 627 l-235 0 l0 73 l550 0 l0 -73 l-235 0 l0 -627 l-80 0 Z" /><glyph glyph-name="U" unicode="U" d="M379 -11 q-133 0 -212 79.5 q-79 79.5 -79 224.5 l0 407 l79 0 l0 -402 q0 -113 56.5 -174.5 q56.5 -61.5 157.5 -61.5 q99 0 155 59 q56 59 56 172 l0 407 l79 0 l0 -401 q0 -150 -79 -230 q-79 -80 -213 -80 Z" /><glyph glyph-name="V" unicode="V" d="M340 -5 l-301 705 l88 0 l249 -603 l250 603 l85 0 l-301 -705 l-70 0 Z" /><glyph glyph-name="W" unicode="W" d="M295 -5 l-250 705 l86 0 l200 -583 l192 585 l65 0 l192 -585 l200 583 l83 0 l-250 -705 l-67 0 l-192 568 l-193 -568 l-66 0 Z" /><glyph glyph-name="X" unicode="X" d="M46 0 l269 357 l-259 343 l93 0 l215 -286 l213 286 l92 0 l-259 -342 l269 -358 l-94 0 l-224 301 l-224 -301 l-91 0 Z" /><glyph glyph-name="Y" unicode="Y" d="M318 0 l0 277 l-291 423 l96 0 l236 -350 l238 350 l92 0 l-291 -422 l0 -278 l-80 0 Z" /><glyph glyph-name="Z" unicode="Z" d="M67 0 l0 53 l453 576 l-438 0 l0 71 l546 0 l0 -53 l-454 -576 l454 0 l0 -71 l-561 0 Z" /><glyph glyph-name="bracketleft" unicode="[" d="M94 -130 l0 830 l286 0 l0 -60 l-213 0 l0 -710 l213 0 l0 -60 l-286 0 Z" /><glyph glyph-name="backslash" unicode="\" d="M458 -128 l-464 926 l71 0 l464 -926 l-71 0 Z" /><glyph glyph-name="bracketright" unicode="]" d="M59 -130 l0 60 l214 0 l0 710 l-214 0 l0 60 l286 0 l0 -830 l-286 0 Z" /><glyph glyph-name="asciicircum" unicode="^" d="M65 493 l155 209 l60 0 l155 -209 l-68 0 l-118 154 l-118 -154 l-66 0 Z" /><glyph glyph-name="underscore" unicode="_" d="M-2 -160 l0 63 l604 0 l0 -63 l-604 0 Z" /><glyph glyph-name="grave" unicode="`" d="M258 595 l-114 108 l80 37 l94 -145 l-60 0 Z" /><glyph glyph-name="a" unicode="a" d="M240 -11 q-78 0 -135.5 43 q-57.5 43 -57.5 118 l0 2 q0 81 60 125 q60 44 161 44 q80 0 158 -22 l0 16 q0 68 -40 104 q-40 36 -113 36 q-76 0 -157 -37 l-23 63 q96 44 188 44 q110 0 167 -57 q54 -54 54 -152 l0 -316 l-76 0 l0 77 q-69 -88 -186 -88 ZM255 51 q72 0 122 39 q50 39 50 100 l0 48 q-76 22 -151 22 q-71 0 -111 -28.5 q-40 -28.5 -40 -75.5 l0 -2 q0 -47 37.5 -75 q37.5 -28 92.5 -28 Z" /><glyph glyph-name="b" unicode="b" d="M361 -11 q-122 0 -198 110 l0 -99 l-77 0 l0 730 l77 0 l0 -317 q78 115 198 115 q99 0 173 -73 q74 -73 74 -195 l0 -2 q0 -121 -74 -195 q-74 -74 -173 -74 ZM347 58 q78 0 130 54 q52 54 52 145 l0 2 q0 89 -53 144.5 q-53 55.5 -129 55.5 q-75 0 -131 -56.5 q-56 -56.5 -56 -142.5 l0 -2 q0 -87 56 -143.5 q56 -56.5 131 -56.5 Z" /><glyph glyph-name="c" unicode="c" d="M319 -12 q-112 0 -188.5 79 q-76.5 79 -76.5 189 l0 2 q0 111 76.5 190.5 q76.5 79.5 188.5 79.5 q120 0 207 -92 l-51 -54 q-74 78 -157 78 q-78 0 -131.5 -58 q-53.5 -58 -53.5 -142 l0 -2 q0 -84 54.5 -142.5 q54.5 -58.5 135.5 -58.5 q86 0 158 77 l49 -46 q-90 -100 -211 -100 Z" /><glyph glyph-name="d" unicode="d" d="M303 -11 q-99 0 -173 73 q-74 73 -74 195 l0 2 q0 121 74 195 q74 74 173 74 q122 0 198 -110 l0 312 l77 0 l0 -730 l-77 0 l0 104 q-78 -115 -198 -115 ZM317 58 q75 0 131 56.5 q56 56.5 56 143.5 l0 2 q0 86 -56 142.5 q-56 56.5 -131 56.5 q-78 0 -130 -54 q-52 -54 -52 -145 l0 -2 q0 -89 53 -144.5 q53 -55.5 129 -55.5 Z" /><glyph glyph-name="e" unicode="e" d="M132 227 q8 -79 59.5 -125.5 q51.5 -46.5 122.5 -46.5 q93 0 163 73 l48 -43 q-87 -97 -213 -97 q-109 0 -183.5 75.5 q-74.5 75.5 -74.5 194.5 q0 113 71 191.5 q71 78.5 177 78.5 q111 0 176 -78 q65 -78 65 -196 q0 -15 -1 -27 l-410 0 ZM132 289 l333 0 q-7 75 -49.5 124.5 q-42.5 49.5 -115.5 49.5 q-66 0 -113 -49 q-47 -49 -55 -125 Z" /><glyph glyph-name="f" unicode="f" d="M115 0 l0 449 l-71 0 l0 67 l71 0 l0 45 q0 88 45 133 q40 40 111 40 q49 0 85 -13 l0 -67 q-46 13 -75 13 q-90 0 -90 -110 l0 -42 l164 0 l0 -66 l-163 0 l0 -449 l-77 0 Z" /><glyph glyph-name="g" unicode="g" d="M315 -162 q-131 0 -235 72 l35 60 q91 -66 199 -66 q87 0 137.5 47.5 q50.5 47.5 50.5 136.5 l0 61 q-82 -109 -203 -109 q-98 0 -170.5 67.5 q-72.5 67.5 -72.5 174.5 l0 2 q0 109 73 176.5 q73 67.5 170 67.5 q124 0 202 -104 l0 93 l77 0 l0 -427 q0 -117 -66 -183 q-69 -69 -197 -69 ZM314 108 q76 0 133 49.5 q57 49.5 57 125.5 l0 2 q0 77 -56.5 126 q-56.5 49 -133.5 49 q-75 0 -127 -48 q-52 -48 -52 -126 l0 -2 q0 -76 52.5 -126 q52.5 -50 126.5 -50 Z" /><glyph glyph-name="h" unicode="h" d="M86 0 l0 730 l77 0 l0 -303 q61 101 177 101 q92 0 145 -56.5 q53 -56.5 53 -150.5 l0 -321 l-77 0 l0 302 q0 73 -37.5 114.5 q-37.5 41.5 -105.5 41.5 q-67 0 -111 -45 q-44 -45 -44 -117 l0 -296 l-77 0 Z" /><glyph glyph-name="i" unicode="i" d="M88 630 l0 85 l88 0 l0 -85 l-88 0 ZM93 0 l0 517 l77 0 l0 -517 l-77 0 Z" /><glyph glyph-name="j" unicode="j" d="M88 630 l0 85 l88 0 l0 -85 l-88 0 ZM44 -163 q-27 0 -48 5 l0 63 q18 -3 38 -3 q59 0 59 69 l0 546 l77 0 l0 -547 q0 -67 -33 -100 q-33 -33 -93 -33 Z" /><glyph glyph-name="k" unicode="k" d="M86 0 l0 730 l77 0 l0 -504 l279 291 l96 0 l-217 -222 l224 -295 l-92 0 l-185 241 l-105 -106 l0 -135 l-77 0 Z" /><glyph glyph-name="l" unicode="l" d="M93 0 l0 730 l77 0 l0 -730 l-77 0 Z" /><glyph glyph-name="m" unicode="m" d="M86 0 l0 517 l77 0 l0 -87 q65 98 167 98 q116 0 166 -103 q67 103 182 103 q89 0 140.5 -56 q51.5 -56 51.5 -152 l0 -320 l-77 0 l0 302 q0 75 -35.5 115.5 q-35.5 40.5 -98.5 40.5 q-61 0 -102 -43 q-41 -43 -41 -117 l0 -298 l-76 0 l0 304 q0 72 -35.5 113 q-35.5 41 -97.5 41 q-62 0 -103 -46 q-41 -46 -41 -117 l0 -295 l-77 0 Z" /><glyph glyph-name="n" unicode="n" d="M86 0 l0 517 l77 0 l0 -90 q61 101 177 101 q92 0 145 -56.5 q53 -56.5 53 -150.5 l0 -321 l-77 0 l0 302 q0 73 -37.5 114.5 q-37.5 41.5 -105.5 41.5 q-67 0 -111 -45 q-44 -45 -44 -117 l0 -296 l-77 0 Z" /><glyph glyph-name="o" unicode="o" d="M515 67.5 q-78 -79.5 -193 -79.5 q-115 0 -191.5 78.5 q-76.5 78.5 -76.5 189.5 l0 2 q0 111 77.5 190.5 q77.5 79.5 192.5 79.5 q115 0 192 -78.5 q77 -78.5 77 -189.5 l0 -2 q0 -111 -78 -190.5 ZM324 57 q83 0 136.5 58 q53.5 58 53.5 141 l0 2 q0 84 -55.5 143 q-55.5 59 -136.5 59 q-82 0 -135.5 -58.5 q-53.5 -58.5 -53.5 -141.5 l0 -2 q0 -84 55 -142.5 q55 -58.5 136 -58.5 Z" /><glyph glyph-name="p" unicode="p" d="M86 -160 l0 677 l77 0 l0 -104 q78 115 198 115 q99 0 173 -73 q74 -73 74 -195 l0 -2 q0 -121 -74 -195 q-74 -74 -173 -74 q-122 0 -198 110 l0 -259 l-77 0 ZM347 58 q78 0 130 54 q52 54 52 145 l0 2 q0 89 -53 144.5 q-53 55.5 -129 55.5 q-75 0 -131 -56.5 q-56 -56.5 -56 -142.5 l0 -2 q0 -87 56 -143.5 q56 -56.5 131 -56.5 Z" /><glyph glyph-name="q" unicode="q" d="M501 -160 l0 264 q-78 -115 -198 -115 q-99 0 -173 73 q-74 73 -74 195 l0 2 q0 121 74 195 q74 74 173 74 q122 0 198 -110 l0 99 l77 0 l0 -677 l-77 0 ZM317 58 q75 0 131 56.5 q56 56.5 56 143.5 l0 2 q0 86 -56 142.5 q-56 56.5 -131 56.5 q-78 0 -130 -54 q-52 -54 -52 -145 l0 -2 q0 -89 53 -144.5 q53 -55.5 129 -55.5 Z" /><glyph glyph-name="r" unicode="r" d="M86 0 l0 517 l77 0 l0 -135 q30 67 85 107 q55 40 126 37 l0 -83 l-6 0 q-89 0 -147 -62 q-58 -62 -58 -175 l0 -206 l-77 0 Z" /><glyph glyph-name="s" unicode="s" d="M257 -10 q-56 0 -113.5 20.5 q-57.5 20.5 -100.5 55.5 l39 55 q88 -66 179 -66 q47 0 77 22.5 q30 22.5 30 59.5 l0 2 q0 35 -32.5 54 q-32.5 19 -96.5 37 q-39 11 -62 20 q-23 9 -52 25.5 q-29 16.5 -43 41.5 q-14 25 -14 59 l0 2 q0 66 49.5 107 q49.5 41 126.5 41 q100 0 186 -57 l-35 -58 q-77 50 -153 50 q-45 0 -72.5 -21 q-27.5 -21 -27.5 -54 l0 -2 q0 -14 8 -26 q8 -12 18 -20 q10 -8 31.5 -17 q21.5 -9 34.5 -13 q13 -4 41 -13 q29 -9 48.5 -16 q19.5 -7 44 -19.5 q24.5 -12.5 39 -27 q14.5 -14.5 24.5 -36.5 q10 -22 10 -49 l0 -2 q0 -72 -52 -113.5 q-52 -41.5 -132 -41.5 Z" /><glyph glyph-name="t" unicode="t" d="M259 -9 q-67 0 -106.5 35.5 q-39.5 35.5 -39.5 110.5 l0 312 l-72 0 l0 68 l72 0 l0 156 l77 0 l0 -156 l164 0 l0 -68 l-164 0 l0 -302 q0 -86 87 -86 q38 0 75 18 l0 -66 q-42 -22 -93 -22 Z" /><glyph glyph-name="u" unicode="u" d="M276 -11 q-92 0 -145 56.5 q-53 56.5 -53 150.5 l0 321 l77 0 l0 -302 q0 -73 37.5 -114.5 q37.5 -41.5 105.5 -41.5 q67 0 111 45 q44 45 44 117 l0 296 l76 0 l0 -517 l-76 0 l0 90 q-63 -101 -177 -101 Z" /><glyph glyph-name="v" unicode="v" d="M259 -4 l-224 521 l85 0 l174 -429 l175 429 l83 0 l-225 -521 l-68 0 Z" /><glyph glyph-name="w" unicode="w" d="M223 -4 l-181 521 l82 0 l136 -415 l139 417 l64 0 l140 -417 l136 415 l80 0 l-182 -521 l-67 0 l-139 408 l-140 -408 l-68 0 Z" /><glyph glyph-name="x" unicode="x" d="M39 0 l203 263 l-195 254 l88 0 l153 -200 l153 200 l86 0 l-196 -252 l204 -265 l-89 0 l-160 211 l-161 -211 l-86 0 Z" /><glyph glyph-name="y" unicode="y" d="M166 -163 q-56 0 -110 26 l26 61 q37 -19 81 -19 q35 0 59 21.5 q24 21.5 47 75.5 l-235 515 l85 0 l188 -431 l166 431 l82 0 l-217 -534 q-33 -79 -73 -112.5 q-40 -33.5 -99 -33.5 Z" /><glyph glyph-name="z" unicode="z" d="M56 0 l0 49 l343 403 l-331 0 l0 65 l436 0 l0 -49 l-344 -403 l344 0 l0 -65 l-448 0 Z" /><glyph glyph-name="braceleft" unicode="{" d="M416 -141 q-127 23 -172 70 q-45 47 -45 132 q0 7 0.5 37 q0.5 30 0.5 39 q0 61 -26.5 90.5 q-26.5 29.5 -91.5 29.5 l-26 0 l0 60 l26 0 q65 0 91.5 29.5 q26.5 29.5 26.5 90.5 q0 9 -0.5 39 q-0.5 30 -0.5 37 q0 85 45 132 q45 47 172 70 l12 -51 q-100 -26 -128 -57.5 q-28 -31.5 -28 -103.5 q0 -10 0.5 -37 q0.5 -27 0.5 -38 q0 -60 -26.5 -92.5 q-26.5 -32.5 -77.5 -48.5 q53 -17 78.5 -49 q25.5 -32 25.5 -92 q0 -11 -0.5 -38 q-0.5 -27 -0.5 -37 q0 -72 28 -103.5 q28 -31.5 128 -57.5 l-12 -51 Z" /><glyph glyph-name="bar" unicode="|" d="M119 -128 l0 926 l65 0 l0 -926 l-65 0 Z" /><glyph glyph-name="braceright" unicode="}" d="M67 -141 l-13 51 q101 26 129 57.5 q28 31.5 28 103.5 q0 10 -0.5 37 q-0.5 27 -0.5 38 q0 60 26.5 92.5 q26.5 32.5 77.5 48.5 q-53 17 -78.5 49 q-25.5 32 -25.5 92 q0 11 0.5 38 q0.5 27 0.5 37 q0 72 -28 103.5 q-28 31.5 -129 57.5 l13 51 q127 -23 172 -70 q45 -47 45 -132 q0 -7 -0.5 -37 q-0.5 -30 -0.5 -39 q0 -61 26.5 -90.5 q26.5 -29.5 90.5 -29.5 l26 0 l0 -60 l-26 0 q-64 0 -90.5 -29.5 q-26.5 -29.5 -26.5 -90.5 q0 -9 0.5 -39 q0.5 -30 0.5 -37 q0 -85 -45 -132 q-45 -47 -172 -70 Z" /><glyph glyph-name="asciitilde" unicode="~" d="M120 237 l-47 13 q15 57 37 81.5 q22 24.5 58 24.5 q23 0 70.5 -20.5 q47.5 -20.5 63.5 -20.5 q19 0 29.5 10.5 q10.5 10.5 22.5 39.5 l46 -13 q-15 -57 -36.5 -81.5 q-21.5 -24.5 -57.5 -24.5 q-24 0 -71 20.5 q-47 20.5 -63 20.5 q-19 0 -29.5 -10.5 q-10.5 -10.5 -22.5 -39.5 Z" /><glyph glyph-name="exclamdown" unicode="¡" d="M90 595 l0 105 l92 0 l0 -105 l-92 0 ZM91 0 l0 57 l23 445 l43 0 l24 -445 l0 -57 l-90 0 Z" /><glyph glyph-name="cent" unicode="¢" d="M212 -6 l22 106 q-79 28 -127.5 97.5 q-48.5 69.5 -48.5 155.5 l0 2 q0 111 77 190.5 q77 79.5 188 79.5 l13 0 l15 81 l65 0 l-18 -90 q70 -19 132 -84 l-50 -52 q-51 52 -98 67 l-77 -392 q7 -1 21 -1 q87 0 159 77 l48 -45 q-89 -101 -211 -101 q-18 0 -27 1 l-18 -92 l-65 0 ZM250 169 l75 387 l-4 0 q-78 0 -131.5 -58 q-53.5 -58 -53.5 -141 l0 -2 q0 -62 31 -112 q31 -50 83 -74 Z" /><glyph glyph-name="sterling" unicode="£" d="M67 0 l0 46 l84 21 l0 228 l-84 0 l0 69 l84 0 l0 108 q0 115 63 178 q60 60 158 60 q131 0 214 -108 l-61 -48 q-33 41 -68 62 q-35 21 -86 21 q-59 0 -98 -37 q-43 -45 -43 -128 l0 -108 l279 0 l0 -69 l-279 0 l0 -225 l355 0 l0 -70 l-518 0 Z" /><glyph glyph-name="yen" unicode="¥" d="M305 0 l0 116 l-205 0 l0 62 l205 0 l0 88 l-205 0 l0 62 l181 0 l-254 372 l94 0 l223 -342 l225 342 l90 0 l-255 -372 l182 0 l0 -62 l-205 0 l0 -88 l205 0 l0 -62 l-205 0 l0 -116 l-76 0 Z" /><glyph glyph-name="section" unicode="§" d="M328 -10 q-136 0 -229 95 l50 48 q79 -77 181 -77 q50 0 76.5 18.5 q26.5 18.5 26.5 47.5 l0 2 q0 28 -36.5 49.5 q-36.5 21.5 -126.5 42.5 q-114 27 -161 59 q-47 32 -47 83 l0 2 q0 45 36 74.5 q36 29.5 96 39.5 q-74 38 -74 101 l0 2 q0 60 50 96.5 q50 36.5 134 36.5 q136 0 229 -95 l-50 -48 q-79 77 -181 77 q-51 0 -77 -18 q-26 -18 -26 -48 l0 -2 q0 -28 35.5 -49 q35.5 -21 127.5 -43 q115 -27 161.5 -58.5 q46.5 -31.5 46.5 -83.5 l0 -2 q0 -44 -36 -74 q-36 -30 -96 -40 q74 -36 74 -101 l0 -2 q0 -60 -50 -96.5 q-50 -36.5 -134 -36.5 ZM387 263 q48 0 78.5 20.5 q30.5 20.5 30.5 48.5 l0 2 q0 26 -31.5 47 q-31.5 21 -110.5 40 q-65 16 -109 16 q-48 0 -78.5 -20.5 q-30.5 -20.5 -30.5 -48.5 l0 -2 q0 -26 31.5 -47 q31.5 -21 110.5 -40 q64 -16 109 -16 Z" /><glyph glyph-name="dieresis" unicode="¨" d="M293 595 l0 95 l89 0 l0 -95 l-89 0 ZM118 595 l0 95 l89 0 l0 -95 l-89 0 Z" /><glyph glyph-name="copyright" unicode="©" d="M671 94.5 q-106 -106.5 -257 -106.5 q-151 0 -256 105.5 q-105 105.5 -105 254.5 l0 2 q0 149 106 255.5 q106 106.5 257 106.5 q151 0 256 -105.5 q105 -105.5 105 -254.5 l0 -2 q0 -149 -106 -255.5 ZM414 19 q140 0 235 97 q95 97 95 234 l0 2 q0 137 -94.5 233 q-94.5 96 -233.5 96 q-140 0 -235 -97 q-95 -97 -95 -234 l0 -2 q0 -137 94.5 -233 q94.5 -96 233.5 -96 ZM419 163 q-79 0 -132.5 56 q-53.5 56 -53.5 135 l0 2 q0 79 54 135 q54 56 134 56 q81 0 144 -60 l-37 -40 q-52 50 -108 50 q-56 0 -93.5 -41 q-37.5 -41 -37.5 -99 l0 -2 q0 -58 38.5 -99.5 q38.5 -41.5 93.5 -41.5 q57 0 110 50 l36 -35 q-64 -66 -148 -66 Z" /><glyph glyph-name="ordfeminine" unicode="ª" d="M168 408 q-43 0 -75 24 q-32 24 -32 66 l0 2 q0 44 34 68.5 q34 24.5 89 24.5 q40 0 80 -11 l0 5 q0 34 -20.5 52.5 q-20.5 18.5 -57.5 18.5 q-37 0 -86 -22 l-15 42 q57 25 106 25 q59 0 93 -32 q29 -29 29 -84 l0 -173 l-49 0 l0 38 q-36 -44 -96 -44 ZM177 450 q36 0 61.5 19.5 q25.5 19.5 25.5 50.5 l0 24 q-37 11 -76 11 q-35 0 -55 -14.5 q-20 -14.5 -20 -38.5 l0 -2 q0 -23 18.5 -36.5 q18.5 -13.5 45.5 -13.5 ZM58 289 l0 47 l260 0 l0 -47 l-260 0 Z" /><glyph glyph-name="guillemotleft" unicode="«" d="M433 41 l-162 214 l0 8 l162 213 l58 -33 l-135 -183 l135 -185 l-58 -34 ZM210 41 l-162 214 l0 8 l162 213 l59 -33 l-135 -183 l135 -185 l-59 -34 Z" /><glyph glyph-name="registered" unicode="®" d="M202 360 q-73 0 -123.5 51 q-50.5 51 -50.5 123 l0 1 q0 72 51 123.5 q51 51.5 123 51.5 q73 0 123.5 -51 q50.5 -51 50.5 -123 l0 -1 q0 -72 -51 -123.5 q-51 -51.5 -123 -51.5 ZM92.5 424.5 q44.5 -45.5 109.5 -45.5 q65 0 109.5 46 q44.5 46 44.5 110 l0 1 q0 64 -44.5 109.5 q-44.5 45.5 -109.5 45.5 q-65 0 -109.5 -46 q-44.5 -46 -44.5 -110 l0 -1 q0 -64 44.5 -109.5 ZM134 450 l0 177 l80 0 q30 0 49 -14.5 q19 -14.5 19 -41.5 q0 -42 -41 -54 l47 -67 l-41 0 l-42 61 l-37 0 l0 -61 l-34 0 ZM168 539 l43 0 q36 0 36 29 q0 29 -36 29 l-43 0 l0 -58 Z" /><glyph glyph-name="macron" unicode="¯" d="M94 615 l0 63 l312 0 l0 -63 l-312 0 Z" /><glyph glyph-name="degree" unicode="°" d="M338.5 446 q-47.5 -46 -109.5 -46 q-62 0 -109.5 46 q-47.5 46 -47.5 106 l0 2 q0 61 47.5 106.5 q47.5 45.5 109.5 45.5 q62 0 109.5 -45.5 q47.5 -45.5 47.5 -106.5 l0 -2 q0 -60 -47.5 -106 ZM158.5 482 q28.5 -30 70.5 -30 q42 0 70.5 30 q28.5 30 28.5 70 l0 2 q0 40 -28.5 70 q-28.5 30 -70.5 30 q-42 0 -70.5 -30 q-28.5 -30 -28.5 -70 l0 -2 q0 -40 28.5 -70 Z" /><glyph glyph-name="plusminus" unicode="±" d="M549 364 l-200 0 l0 -196 l-73 0 l0 196 l-199 0 l0 70 l199 0 l0 196 l73 0 l0 -196 l200 0 l0 -70 ZM549 0 l-472 0 l0 69 l472 0 l0 -69 Z" /><glyph glyph-name="acute" unicode="´" d="M182 595 l94 145 l80 -37 l-114 -108 l-60 0 Z" /><glyph glyph-name="paragraph" unicode="¶" d="M338 0 l0 264 l-11 0 q-123 0 -201 57.5 q-78 57.5 -78 159.5 l0 2 q0 100 73 158.5 q73 58.5 191 58.5 l106 0 l0 -700 l-80 0 Z" /><glyph glyph-name="periodcentered" unicode="·" d="M77 248 l0 105 l92 0 l0 -105 l-92 0 Z" /><glyph glyph-name="cedilla" unicode="¸" d="M225 -155 l-75 34 l92 134 l61 0 l-78 -168 Z" /><glyph glyph-name="ordmasculine" unicode="º" d="M194 407 q-62 0 -104 43 q-42 43 -42 104 l0 2 q0 62 42.5 105.5 q42.5 43.5 105.5 43.5 q62 0 104 -43 q42 -43 42 -104 l0 -2 q0 -62 -42.5 -105.5 q-42.5 -43.5 -105.5 -43.5 ZM51 289 l0 47 l288 0 l0 -47 l-288 0 ZM129 484.5 q27 -29.5 67 -29.5 q40 0 66 29 q26 29 26 70 l0 2 q0 42 -27 71.5 q-27 29.5 -67 29.5 q-40 0 -66 -29 q-26 -29 -26 -70 l0 -2 q0 -42 27 -71.5 Z" /><glyph glyph-name="guillemotright" unicode="»" d="M340 41 l-59 33 l135 184 l-135 184 l59 34 l162 -213 l0 -8 l-162 -214 ZM117 41 l-58 33 l135 184 l-135 184 l58 34 l162 -213 l0 -8 l-162 -214 Z" /><glyph glyph-name="questiondown" unicode="¿" d="M246 595 l0 105 l92 0 l0 -105 l-92 0 ZM272 -9 q-101 0 -162.5 55.5 q-61.5 55.5 -61.5 142.5 l0 2 q0 89 58 139.5 q58 50.5 150 63.5 l9 108 l51 0 l16 -162 l-5 -5 q-96 -2 -147.5 -39.5 q-51.5 -37.5 -51.5 -101.5 l0 -2 q0 -55 40 -92.5 q40 -37.5 106 -37.5 q101 0 181 94 l51 -49 q-96 -116 -234 -116 Z" /><glyph glyph-name="Agrave" unicode="À" d="M39 0 l319 705 l74 0 l319 -705 l-85 0 l-82 185 l-381 0 l-83 -185 l-81 0 ZM234 256 l319 0 l-159 357 l-160 -357 ZM326 901 l101 -129 l-64 0 l-115 93 l78 36 Z" /><glyph glyph-name="Aacute" unicode="Á" d="M39 0 l319 705 l74 0 l319 -705 l-85 0 l-82 185 l-381 0 l-83 -185 l-81 0 ZM234 256 l319 0 l-159 357 l-160 -357 ZM363 772 l100 129 l79 -36 l-115 -93 l-64 0 Z" /><glyph glyph-name="Acircumflex" unicode="Â" d="M39 0 l319 705 l74 0 l319 -705 l-85 0 l-82 185 l-381 0 l-83 -185 l-81 0 ZM234 256 l319 0 l-159 357 l-160 -357 ZM249 770 l110 118 l72 0 l110 -118 l-72 0 l-75 60 l-75 -60 l-70 0 Z" /><glyph glyph-name="Atilde" unicode="Ã" d="M39 0 l319 705 l74 0 l319 -705 l-85 0 l-82 185 l-381 0 l-83 -185 l-81 0 ZM234 256 l319 0 l-159 357 l-160 -357 ZM282 763 l-49 14 q15 53 37 77.5 q22 24.5 57 24.5 q23 0 71 -19.5 q48 -19.5 63 -19.5 q19 0 29.5 10.5 q10.5 10.5 22.5 36.5 l49 -14 q-15 -53 -37 -77 q-22 -24 -57 -24 q-23 0 -71 19.5 q-48 19.5 -63 19.5 q-19 0 -29.5 -10.5 q-10.5 -10.5 -22.5 -37.5 Z" /><glyph glyph-name="Adieresis" unicode="Ä" d="M39 0 l319 705 l74 0 l319 -705 l-85 0 l-82 185 l-381 0 l-83 -185 l-81 0 ZM234 256 l319 0 l-159 357 l-160 -357 ZM442 772 l0 90 l93 0 l0 -90 l-93 0 ZM255 772 l0 90 l93 0 l0 -90 l-93 0 Z" /><glyph glyph-name="Aring" unicode="Å" d="M284 750 q0 42 32.5 70.5 q32.5 28.5 78.5 28.5 q46 0 78.5 -28.5 q32.5 -28.5 32.5 -70.5 q0 -59 -56 -86 l301 -664 l-85 0 l-82 185 l-381 0 l-83 -185 l-81 0 l300 664 q-55 27 -55 86 ZM234 256 l319 0 l-159 357 l-160 -357 ZM347 793.5 q-19 -17.5 -19 -43.5 q0 -26 19 -43.5 q19 -17.5 48 -17.5 q29 0 48 17.5 q19 17.5 19 43.5 q0 26 -19 43.5 q-19 17.5 -48 17.5 q-29 0 -48 -17.5 Z" /><glyph glyph-name="AE" unicode="Æ" d="M17 0 l411 700 l552 0 l0 -72 l-409 0 l0 -239 l364 0 l0 -72 l-364 0 l0 -245 l414 0 l0 -72 l-494 0 l0 185 l-282 0 l-109 -185 l-83 0 ZM249 256 l242 0 l0 374 l-24 0 l-218 -374 Z" /><glyph glyph-name="Ccedilla" unicode="Ç" d="M369 -155 l-75 34 l77 112 q-133 17 -218 117.5 q-85 100.5 -85 239.5 l0 2 q0 151 101 256.5 q101 105.5 253 105.5 q89 0 152 -28 q63 -28 121 -83 l-54 -58 q-101 96 -220 96 q-116 0 -193.5 -83 q-77.5 -83 -77.5 -204 l0 -2 q0 -122 78 -205.5 q78 -83.5 193 -83.5 q68 0 120 25 q52 25 106 76 l52 -51 q-57 -58 -118.5 -88.5 q-61.5 -30.5 -145.5 -33.5 l-66 -144 Z" /><glyph glyph-name="Egrave" unicode="È" d="M285 891 l101 -129 l-64 0 l-115 93 l78 36 ZM99 0 l0 700 l506 0 l0 -72 l-427 0 l0 -239 l382 0 l0 -72 l-382 0 l0 -245 l432 0 l0 -72 l-511 0 Z" /><glyph glyph-name="Eacute" unicode="É" d="M321 762 l100 129 l79 -36 l-115 -93 l-64 0 ZM99 0 l0 700 l506 0 l0 -72 l-427 0 l0 -239 l382 0 l0 -72 l-382 0 l0 -245 l432 0 l0 -72 l-511 0 Z" /><glyph glyph-name="Ecircumflex" unicode="Ê" d="M99 0 l0 700 l506 0 l0 -72 l-427 0 l0 -239 l382 0 l0 -72 l-382 0 l0 -245 l432 0 l0 -72 l-511 0 ZM207 762 l110 118 l72 0 l110 -118 l-72 0 l-75 60 l-75 -60 l-70 0 Z" /><glyph glyph-name="Edieresis" unicode="Ë" d="M401 762 l0 90 l93 0 l0 -90 l-93 0 ZM214 762 l0 90 l93 0 l0 -90 l-93 0 ZM99 0 l0 700 l506 0 l0 -72 l-427 0 l0 -239 l382 0 l0 -72 l-382 0 l0 -245 l432 0 l0 -72 l-511 0 Z" /><glyph glyph-name="Igrave" unicode="Ì" d="M106 0 l0 700 l79 0 l0 -700 l-79 0 ZM77 891 l101 -129 l-64 0 l-115 93 l78 36 Z" /><glyph glyph-name="Iacute" unicode="Í" d="M106 0 l0 700 l79 0 l0 -700 l-79 0 ZM114 762 l100 129 l79 -36 l-115 -93 l-64 0 Z" /><glyph glyph-name="Icircumflex" unicode="Î" d="M106 0 l0 700 l79 0 l0 -700 l-79 0 ZM0 762 l110 118 l72 0 l110 -118 l-72 0 l-75 60 l-75 -60 l-70 0 Z" /><glyph glyph-name="Idieresis" unicode="Ï" d="M106 0 l0 700 l79 0 l0 -700 l-79 0 ZM194 762 l0 90 l93 0 l0 -90 l-93 0 ZM7 762 l0 90 l93 0 l0 -90 l-93 0 Z" /><glyph glyph-name="Eth" unicode="Ð" d="M129 0 l0 316 l-75 0 l0 72 l75 0 l0 312 l243 0 q163 0 267.5 -99.5 q104.5 -99.5 104.5 -248.5 l0 -2 q0 -150 -104.5 -250 q-104.5 -100 -267.5 -100 l-243 0 ZM208 73 l164 0 q130 0 210 78 q80 78 80 197 l0 2 q0 119 -80 198 q-80 79 -210 79 l-164 0 l0 -239 l210 0 l0 -72 l-210 0 l0 -243 Z" /><glyph glyph-name="Ntilde" unicode="Ñ" d="M282 750 l-49 14 q15 53 37 77.5 q22 24.5 57 24.5 q23 0 71 -19.5 q48 -19.5 63 -19.5 q19 0 29.5 10.5 q10.5 10.5 22.5 36.5 l49 -14 q-15 -53 -37 -77 q-22 -24 -57 -24 q-23 0 -71 19.5 q-48 19.5 -63 19.5 q-19 0 -29.5 -10.5 q-10.5 -10.5 -22.5 -37.5 ZM99 0 l0 700 l74 0 l441 -561 l0 561 l77 0 l0 -700 l-63 0 l-452 574 l0 -574 l-77 0 Z" /><glyph glyph-name="Ograve" unicode="Ò" d="M356 901 l101 -129 l-64 0 l-115 93 l78 36 ZM681 94.5 q-101 -106.5 -257 -106.5 q-156 0 -256 105.5 q-100 105.5 -100 254.5 l0 2 q0 149 101 255.5 q101 106.5 257 106.5 q156 0 256 -105.5 q100 -105.5 100 -254.5 l0 -2 q0 -149 -101 -255.5 ZM228.5 145 q78.5 -84 197.5 -84 q119 0 196.5 83 q77.5 83 77.5 204 l0 2 q0 121 -78.5 205 q-78.5 84 -197.5 84 q-119 0 -196.5 -83 q-77.5 -83 -77.5 -204 l0 -2 q0 -121 78.5 -205 Z" /><glyph glyph-name="Oacute" unicode="Ó" d="M393 772 l100 129 l79 -36 l-115 -93 l-64 0 ZM681 94.5 q-101 -106.5 -257 -106.5 q-156 0 -256 105.5 q-100 105.5 -100 254.5 l0 2 q0 149 101 255.5 q101 106.5 257 106.5 q156 0 256 -105.5 q100 -105.5 100 -254.5 l0 -2 q0 -149 -101 -255.5 ZM228.5 145 q78.5 -84 197.5 -84 q119 0 196.5 83 q77.5 83 77.5 204 l0 2 q0 121 -78.5 205 q-78.5 84 -197.5 84 q-119 0 -196.5 -83 q-77.5 -83 -77.5 -204 l0 -2 q0 -121 78.5 -205 Z" /><glyph glyph-name="Ocircumflex" unicode="Ô" d="M681 94.5 q-101 -106.5 -257 -106.5 q-156 0 -256 105.5 q-100 105.5 -100 254.5 l0 2 q0 149 101 255.5 q101 106.5 257 106.5 q156 0 256 -105.5 q100 -105.5 100 -254.5 l0 -2 q0 -149 -101 -255.5 ZM228.5 145 q78.5 -84 197.5 -84 q119 0 196.5 83 q77.5 83 77.5 204 l0 2 q0 121 -78.5 205 q-78.5 84 -197.5 84 q-119 0 -196.5 -83 q-77.5 -83 -77.5 -204 l0 -2 q0 -121 78.5 -205 ZM279 772 l110 118 l72 0 l110 -118 l-72 0 l-75 60 l-75 -60 l-70 0 Z" /><glyph glyph-name="Otilde" unicode="Õ" d="M312 763 l-49 14 q15 53 37 77.5 q22 24.5 57 24.5 q23 0 71 -19.5 q48 -19.5 63 -19.5 q19 0 29.5 10.5 q10.5 10.5 22.5 36.5 l49 -14 q-15 -53 -37 -77 q-22 -24 -57 -24 q-23 0 -71 19.5 q-48 19.5 -63 19.5 q-19 0 -29.5 -10.5 q-10.5 -10.5 -22.5 -37.5 ZM681 94.5 q-101 -106.5 -257 -106.5 q-156 0 -256 105.5 q-100 105.5 -100 254.5 l0 2 q0 149 101 255.5 q101 106.5 257 106.5 q156 0 256 -105.5 q100 -105.5 100 -254.5 l0 -2 q0 -149 -101 -255.5 ZM228.5 145 q78.5 -84 197.5 -84 q119 0 196.5 83 q77.5 83 77.5 204 l0 2 q0 121 -78.5 205 q-78.5 84 -197.5 84 q-119 0 -196.5 -83 q-77.5 -83 -77.5 -204 l0 -2 q0 -121 78.5 -205 Z" /><glyph glyph-name="Odieresis" unicode="Ö" d="M472 772 l0 90 l93 0 l0 -90 l-93 0 ZM285 772 l0 90 l93 0 l0 -90 l-93 0 ZM681 94.5 q-101 -106.5 -257 -106.5 q-156 0 -256 105.5 q-100 105.5 -100 254.5 l0 2 q0 149 101 255.5 q101 106.5 257 106.5 q156 0 256 -105.5 q100 -105.5 100 -254.5 l0 -2 q0 -149 -101 -255.5 ZM228.5 145 q78.5 -84 197.5 -84 q119 0 196.5 83 q77.5 83 77.5 204 l0 2 q0 121 -78.5 205 q-78.5 84 -197.5 84 q-119 0 -196.5 -83 q-77.5 -83 -77.5 -204 l0 -2 q0 -121 78.5 -205 Z" /><glyph glyph-name="multiply" unicode="×" d="M486 127 l-174 177 l-174 -177 l-50 50 l176 174 l-176 174 l52 52 l174 -177 l174 177 l50 -50 l-177 -174 l177 -174 l-52 -52 Z" /><glyph glyph-name="Oslash" unicode="Ø" d="M424 -12 q-127 0 -219 73 l-62 -66 l-83 0 l99 108 q-91 102 -91 245 l0 2 q0 149 101 255.5 q101 106.5 257 106.5 q128 0 219 -74 l62 67 l83 0 l-99 -108 q91 -102 91 -245 l0 -2 q0 -149 -101 -255.5 q-101 -106.5 -257 -106.5 ZM213 163 l381 416 q-72 61 -170 61 q-118 0 -196 -83.5 q-78 -83.5 -78 -204.5 l0 -2 q0 -107 63 -187 ZM426 60 q118 0 196 83.5 q78 83.5 78 204.5 l0 2 q0 107 -63 187 l-381 -416 q72 -61 170 -61 Z" /><glyph glyph-name="Ugrave" unicode="Ù" d="M310 888 l101 -129 l-64 0 l-115 93 l78 36 ZM379 -11 q-133 0 -212 79.5 q-79 79.5 -79 224.5 l0 407 l79 0 l0 -402 q0 -113 56.5 -174.5 q56.5 -61.5 157.5 -61.5 q99 0 155 59 q56 59 56 172 l0 407 l79 0 l0 -401 q0 -150 -79 -230 q-79 -80 -213 -80 Z" /><glyph glyph-name="Uacute" unicode="Ú" d="M347 759 l100 129 l79 -36 l-115 -93 l-64 0 ZM379 -11 q-133 0 -212 79.5 q-79 79.5 -79 224.5 l0 407 l79 0 l0 -402 q0 -113 56.5 -174.5 q56.5 -61.5 157.5 -61.5 q99 0 155 59 q56 59 56 172 l0 407 l79 0 l0 -401 q0 -150 -79 -230 q-79 -80 -213 -80 Z" /><glyph glyph-name="Ucircumflex" unicode="Û" d="M379 -11 q-133 0 -212 79.5 q-79 79.5 -79 224.5 l0 407 l79 0 l0 -402 q0 -113 56.5 -174.5 q56.5 -61.5 157.5 -61.5 q99 0 155 59 q56 59 56 172 l0 407 l79 0 l0 -401 q0 -150 -79 -230 q-79 -80 -213 -80 ZM233 759 l110 118 l72 0 l110 -118 l-72 0 l-75 60 l-75 -60 l-70 0 Z" /><glyph glyph-name="Udieresis" unicode="Ü" d="M427 759 l0 90 l93 0 l0 -90 l-93 0 ZM240 759 l0 90 l93 0 l0 -90 l-93 0 ZM379 -11 q-133 0 -212 79.5 q-79 79.5 -79 224.5 l0 407 l79 0 l0 -402 q0 -113 56.5 -174.5 q56.5 -61.5 157.5 -61.5 q99 0 155 59 q56 59 56 172 l0 407 l79 0 l0 -401 q0 -150 -79 -230 q-79 -80 -213 -80 Z" /><glyph glyph-name="Yacute" unicode="Ý" d="M318 0 l0 277 l-291 423 l96 0 l236 -350 l238 350 l92 0 l-291 -422 l0 -278 l-80 0 ZM326 759 l100 129 l79 -36 l-115 -93 l-64 0 Z" /><glyph glyph-name="Thorn" unicode="Þ" d="M99 0 l0 700 l79 0 l0 -120 l183 0 q119 0 190.5 -60 q71.5 -60 71.5 -162 l0 -2 q0 -109 -78.5 -169.5 q-78.5 -60.5 -196.5 -60.5 l-170 0 l0 -126 l-79 0 ZM178 198 l173 0 q87 0 139.5 43 q52.5 43 52.5 112 l0 2 q0 73 -50.5 112.5 q-50.5 39.5 -137.5 39.5 l-177 0 l0 -309 Z" /><glyph glyph-name="germandbls" unicode="ß" d="M292 -2 l0 62 q90 2 140.5 36 q50.5 34 50.5 96 l0 2 q0 58 -50.5 93 q-50.5 35 -140.5 44 l0 57 q148 55 148 162 l0 2 q0 52 -36.5 84.5 q-36.5 32.5 -94.5 32.5 q-65 0 -105.5 -45.5 q-40.5 -45.5 -40.5 -121.5 l0 -502 l-77 0 l0 501 q0 106 61.5 171 q61.5 65 165.5 65 q93 0 149.5 -51.5 q56.5 -51.5 56.5 -128.5 l0 -2 q0 -65 -39.5 -111 q-39.5 -46 -99.5 -72 q79 -18 130.5 -62 q51.5 -44 51.5 -116 l0 -2 q0 -93 -72.5 -144.5 q-72.5 -51.5 -197.5 -49.5 Z" /><glyph glyph-name="agrave" unicode="à" d="M240 -11 q-78 0 -135.5 43 q-57.5 43 -57.5 118 l0 2 q0 81 60 125 q60 44 161 44 q80 0 158 -22 l0 16 q0 68 -40 104 q-40 36 -113 36 q-76 0 -157 -37 l-23 63 q96 44 188 44 q110 0 167 -57 q54 -54 54 -152 l0 -316 l-76 0 l0 77 q-69 -88 -186 -88 ZM255 51 q72 0 122 39 q50 39 50 100 l0 48 q-76 22 -151 22 q-71 0 -111 -28.5 q-40 -28.5 -40 -75.5 l0 -2 q0 -47 37.5 -75 q37.5 -28 92.5 -28 ZM261 595 l-114 108 l80 37 l94 -145 l-60 0 Z" /><glyph glyph-name="aacute" unicode="á" d="M240 -11 q-78 0 -135.5 43 q-57.5 43 -57.5 118 l0 2 q0 81 60 125 q60 44 161 44 q80 0 158 -22 l0 16 q0 68 -40 104 q-40 36 -113 36 q-76 0 -157 -37 l-23 63 q96 44 188 44 q110 0 167 -57 q54 -54 54 -152 l0 -316 l-76 0 l0 77 q-69 -88 -186 -88 ZM255 51 q72 0 122 39 q50 39 50 100 l0 48 q-76 22 -151 22 q-71 0 -111 -28.5 q-40 -28.5 -40 -75.5 l0 -2 q0 -47 37.5 -75 q37.5 -28 92.5 -28 ZM258 595 l94 145 l80 -37 l-114 -108 l-60 0 Z" /><glyph glyph-name="acircumflex" unicode="â" d="M240 -11 q-78 0 -135.5 43 q-57.5 43 -57.5 118 l0 2 q0 81 60 125 q60 44 161 44 q80 0 158 -22 l0 16 q0 68 -40 104 q-40 36 -113 36 q-76 0 -157 -37 l-23 63 q96 44 188 44 q110 0 167 -57 q54 -54 54 -152 l0 -316 l-76 0 l0 77 q-69 -88 -186 -88 ZM255 51 q72 0 122 39 q50 39 50 100 l0 48 q-76 22 -151 22 q-71 0 -111 -28.5 q-40 -28.5 -40 -75.5 l0 -2 q0 -47 37.5 -75 q37.5 -28 92.5 -28 ZM149 595 l106 131 l68 0 l106 -131 l-66 0 l-75 67 l-75 -67 l-64 0 Z" /><glyph glyph-name="atilde" unicode="ã" d="M240 -11 q-78 0 -135.5 43 q-57.5 43 -57.5 118 l0 2 q0 81 60 125 q60 44 161 44 q80 0 158 -22 l0 16 q0 68 -40 104 q-40 36 -113 36 q-76 0 -157 -37 l-23 63 q96 44 188 44 q110 0 167 -57 q54 -54 54 -152 l0 -316 l-76 0 l0 77 q-69 -88 -186 -88 ZM255 51 q72 0 122 39 q50 39 50 100 l0 48 q-76 22 -151 22 q-71 0 -111 -28.5 q-40 -28.5 -40 -75.5 l0 -2 q0 -47 37.5 -75 q37.5 -28 92.5 -28 ZM176 586 l-47 13 q15 56 37 80.5 q22 24.5 58 24.5 q24 0 71 -20 q47 -20 63 -20 q19 0 29.5 10.5 q10.5 10.5 22.5 38.5 l47 -13 q-15 -56 -37 -80.5 q-22 -24.5 -58 -24.5 q-24 0 -71 20 q-47 20 -63 20 q-19 0 -29.5 -10.5 q-10.5 -10.5 -22.5 -38.5 Z" /><glyph glyph-name="adieresis" unicode="ä" d="M240 -11 q-78 0 -135.5 43 q-57.5 43 -57.5 118 l0 2 q0 81 60 125 q60 44 161 44 q80 0 158 -22 l0 16 q0 68 -40 104 q-40 36 -113 36 q-76 0 -157 -37 l-23 63 q96 44 188 44 q110 0 167 -57 q54 -54 54 -152 l0 -316 l-76 0 l0 77 q-69 -88 -186 -88 ZM255 51 q72 0 122 39 q50 39 50 100 l0 48 q-76 22 -151 22 q-71 0 -111 -28.5 q-40 -28.5 -40 -75.5 l0 -2 q0 -47 37.5 -75 q37.5 -28 92.5 -28 ZM332 595 l0 95 l89 0 l0 -95 l-89 0 ZM157 595 l0 95 l89 0 l0 -95 l-89 0 Z" /><glyph glyph-name="aring" unicode="å" d="M240 -11 q-78 0 -135.5 43 q-57.5 43 -57.5 118 l0 2 q0 81 60 125 q60 44 161 44 q80 0 158 -22 l0 16 q0 68 -40 104 q-40 36 -113 36 q-76 0 -157 -37 l-23 63 q96 44 188 44 q110 0 167 -57 q54 -54 54 -152 l0 -316 l-76 0 l0 77 q-69 -88 -186 -88 ZM255 51 q72 0 122 39 q50 39 50 100 l0 48 q-76 22 -151 22 q-71 0 -111 -28.5 q-40 -28.5 -40 -75.5 l0 -2 q0 -47 37.5 -75 q37.5 -28 92.5 -28 ZM212 624 q-32 31 -32 74 q0 43 32 73.5 q32 30.5 77 30.5 q45 0 77 -30.5 q32 -30.5 32 -73.5 q0 -43 -32 -74 q-32 -31 -77 -31 q-45 0 -77 31 ZM240.5 746.5 q-20.5 -20.5 -20.5 -48.5 q0 -28 20.5 -48.5 q20.5 -20.5 48.5 -20.5 q28 0 48.5 20.5 q20.5 20.5 20.5 48.5 q0 28 -20.5 48.5 q-20.5 20.5 -48.5 20.5 q-28 0 -48.5 -20.5 Z" /><glyph glyph-name="ae" unicode="æ" d="M236 -11 q-75 0 -132 43 q-57 43 -57 118 l0 2 q0 81 59.5 125 q59.5 44 157.5 44 q67 0 153 -22 l0 16 q0 69 -39 104.5 q-39 35.5 -109 35.5 q-72 0 -153 -37 l-23 63 q96 44 184 44 q71 0 120.5 -28.5 q49.5 -28.5 68.5 -83.5 q31 53 83.5 84 q52.5 31 114.5 31 q111 0 175.5 -78 q64.5 -78 64.5 -196 q0 -15 -1 -27 l-410 0 q8 -79 59.5 -125.5 q51.5 -46.5 122.5 -46.5 q93 0 163 73 l48 -43 q-87 -97 -213 -97 q-62 0 -116 27.5 q-54 27.5 -89 76.5 q-43 -45 -106.5 -74 q-63.5 -29 -125.5 -29 ZM493 289 l333 0 q-7 75 -49.5 124.5 q-42.5 49.5 -115.5 49.5 q-66 0 -113 -49 q-47 -49 -55 -125 ZM251 51 q62 0 103.5 23 q41.5 23 82.5 69 q-18 45 -21 97 q-76 20 -144 20 q-68 0 -107.5 -28.5 q-39.5 -28.5 -39.5 -75.5 l0 -2 q0 -47 37.5 -75 q37.5 -28 88.5 -28 Z" /><glyph glyph-name="ccedilla" unicode="ç" d="M268 -155 l-75 34 l78 114 q-95 16 -156 91 q-61 75 -61 172 l0 2 q0 111 76.5 190.5 q76.5 79.5 188.5 79.5 q120 0 207 -92 l-51 -54 q-74 78 -157 78 q-78 0 -131.5 -58 q-53.5 -58 -53.5 -142 l0 -2 q0 -84 54.5 -142.5 q54.5 -58.5 135.5 -58.5 q86 0 158 77 l49 -46 q-84 -94 -196 -99 l-66 -144 Z" /><glyph glyph-name="egrave" unicode="è" d="M132 227 q8 -79 59.5 -125.5 q51.5 -46.5 122.5 -46.5 q93 0 163 73 l48 -43 q-87 -97 -213 -97 q-109 0 -183.5 75.5 q-74.5 75.5 -74.5 194.5 q0 113 71 191.5 q71 78.5 177 78.5 q111 0 176 -78 q65 -78 65 -196 q0 -15 -1 -27 l-410 0 ZM132 289 l333 0 q-7 75 -49.5 124.5 q-42.5 49.5 -115.5 49.5 q-66 0 -113 -49 q-47 -49 -55 -125 ZM272 595 l-114 108 l80 37 l94 -145 l-60 0 Z" /><glyph glyph-name="eacute" unicode="é" d="M270 595 l94 145 l80 -37 l-114 -108 l-60 0 ZM132 227 q8 -79 59.5 -125.5 q51.5 -46.5 122.5 -46.5 q93 0 163 73 l48 -43 q-87 -97 -213 -97 q-109 0 -183.5 75.5 q-74.5 75.5 -74.5 194.5 q0 113 71 191.5 q71 78.5 177 78.5 q111 0 176 -78 q65 -78 65 -196 q0 -15 -1 -27 l-410 0 ZM132 289 l333 0 q-7 75 -49.5 124.5 q-42.5 49.5 -115.5 49.5 q-66 0 -113 -49 q-47 -49 -55 -125 Z" /><glyph glyph-name="ecircumflex" unicode="ê" d="M161 595 l106 131 l68 0 l106 -131 l-66 0 l-75 67 l-75 -67 l-64 0 ZM132 227 q8 -79 59.5 -125.5 q51.5 -46.5 122.5 -46.5 q93 0 163 73 l48 -43 q-87 -97 -213 -97 q-109 0 -183.5 75.5 q-74.5 75.5 -74.5 194.5 q0 113 71 191.5 q71 78.5 177 78.5 q111 0 176 -78 q65 -78 65 -196 q0 -15 -1 -27 l-410 0 ZM132 289 l333 0 q-7 75 -49.5 124.5 q-42.5 49.5 -115.5 49.5 q-66 0 -113 -49 q-47 -49 -55 -125 Z" /><glyph glyph-name="edieresis" unicode="ë" d="M344 595 l0 95 l89 0 l0 -95 l-89 0 ZM169 595 l0 95 l89 0 l0 -95 l-89 0 ZM132 227 q8 -79 59.5 -125.5 q51.5 -46.5 122.5 -46.5 q93 0 163 73 l48 -43 q-87 -97 -213 -97 q-109 0 -183.5 75.5 q-74.5 75.5 -74.5 194.5 q0 113 71 191.5 q71 78.5 177 78.5 q111 0 176 -78 q65 -78 65 -196 q0 -15 -1 -27 l-410 0 ZM132 289 l333 0 q-7 75 -49.5 124.5 q-42.5 49.5 -115.5 49.5 q-66 0 -113 -49 q-47 -49 -55 -125 Z" /><glyph glyph-name="igrave" unicode="ì" d="M93 0 l0 517 l77 0 l0 -517 l-77 0 ZM103 595 l-114 108 l80 37 l94 -145 l-60 0 Z" /><glyph glyph-name="iacute" unicode="í" d="M101 595 l94 145 l80 -37 l-114 -108 l-60 0 ZM93 0 l0 517 l77 0 l0 -517 l-77 0 Z" /><glyph glyph-name="icircumflex" unicode="î" d="M-8 595 l106 131 l68 0 l106 -131 l-66 0 l-75 67 l-75 -67 l-64 0 ZM93 0 l0 517 l77 0 l0 -517 l-77 0 Z" /><glyph glyph-name="idieresis" unicode="ï" d="M175 595 l0 95 l89 0 l0 -95 l-89 0 ZM0 595 l0 95 l89 0 l0 -95 l-89 0 ZM93 0 l0 517 l77 0 l0 -517 l-77 0 Z" /><glyph glyph-name="eth" unicode="ð" d="M493 685 l-86 -36 q184 -179 184 -365 l0 -2 q0 -129 -75 -211.5 q-75 -82.5 -197 -82.5 q-112 0 -188.5 79.5 q-76.5 79.5 -76.5 192.5 l0 2 q0 110 72.5 182 q72.5 72 171.5 72 q100 0 179 -72 q-42 85 -139 176 l-115 -47 l-23 47 l95 39 q-43 37 -89 71 l111 0 l48 -41 l105 44 l23 -48 ZM324 57 q82 0 135 57 q53 57 53 142 l0 2 q0 83 -55 138 q-55 55 -141 55 q-82 0 -132.5 -55 q-50.5 -55 -50.5 -138 l0 -2 q0 -83 55 -141 q55 -58 136 -58 Z" /><glyph glyph-name="ntilde" unicode="ñ" d="M86 0 l0 517 l77 0 l0 -90 q61 101 177 101 q92 0 145 -56.5 q53 -56.5 53 -150.5 l0 -321 l-77 0 l0 302 q0 73 -37.5 114.5 q-37.5 41.5 -105.5 41.5 q-67 0 -111 -45 q-44 -45 -44 -117 l0 -296 l-77 0 ZM198 586 l-47 13 q15 56 37 80.5 q22 24.5 58 24.5 q24 0 71 -20 q47 -20 63 -20 q19 0 29.5 10.5 q10.5 10.5 22.5 38.5 l47 -13 q-15 -56 -37 -80.5 q-22 -24.5 -58 -24.5 q-24 0 -71 20 q-47 20 -63 20 q-19 0 -29.5 -10.5 q-10.5 -10.5 -22.5 -38.5 Z" /><glyph glyph-name="ograve" unicode="ò" d="M515 67.5 q-78 -79.5 -193 -79.5 q-115 0 -191.5 78.5 q-76.5 78.5 -76.5 189.5 l0 2 q0 111 77.5 190.5 q77.5 79.5 192.5 79.5 q115 0 192 -78.5 q77 -78.5 77 -189.5 l0 -2 q0 -111 -78 -190.5 ZM324 57 q83 0 136.5 58 q53.5 58 53.5 141 l0 2 q0 84 -55.5 143 q-55.5 59 -136.5 59 q-82 0 -135.5 -58.5 q-53.5 -58.5 -53.5 -141.5 l0 -2 q0 -84 55 -142.5 q55 -58.5 136 -58.5 ZM294 595 l-114 108 l80 37 l94 -145 l-60 0 Z" /><glyph glyph-name="oacute" unicode="ó" d="M292 595 l94 145 l80 -37 l-114 -108 l-60 0 ZM515 67.5 q-78 -79.5 -193 -79.5 q-115 0 -191.5 78.5 q-76.5 78.5 -76.5 189.5 l0 2 q0 111 77.5 190.5 q77.5 79.5 192.5 79.5 q115 0 192 -78.5 q77 -78.5 77 -189.5 l0 -2 q0 -111 -78 -190.5 ZM324 57 q83 0 136.5 58 q53.5 58 53.5 141 l0 2 q0 84 -55.5 143 q-55.5 59 -136.5 59 q-82 0 -135.5 -58.5 q-53.5 -58.5 -53.5 -141.5 l0 -2 q0 -84 55 -142.5 q55 -58.5 136 -58.5 Z" /><glyph glyph-name="ocircumflex" unicode="ô" d="M183 595 l106 131 l68 0 l106 -131 l-66 0 l-75 67 l-75 -67 l-64 0 ZM515 67.5 q-78 -79.5 -193 -79.5 q-115 0 -191.5 78.5 q-76.5 78.5 -76.5 189.5 l0 2 q0 111 77.5 190.5 q77.5 79.5 192.5 79.5 q115 0 192 -78.5 q77 -78.5 77 -189.5 l0 -2 q0 -111 -78 -190.5 ZM324 57 q83 0 136.5 58 q53.5 58 53.5 141 l0 2 q0 84 -55.5 143 q-55.5 59 -136.5 59 q-82 0 -135.5 -58.5 q-53.5 -58.5 -53.5 -141.5 l0 -2 q0 -84 55 -142.5 q55 -58.5 136 -58.5 Z" /><glyph glyph-name="otilde" unicode="õ" d="M515 67.5 q-78 -79.5 -193 -79.5 q-115 0 -191.5 78.5 q-76.5 78.5 -76.5 189.5 l0 2 q0 111 77.5 190.5 q77.5 79.5 192.5 79.5 q115 0 192 -78.5 q77 -78.5 77 -189.5 l0 -2 q0 -111 -78 -190.5 ZM324 57 q83 0 136.5 58 q53.5 58 53.5 141 l0 2 q0 84 -55.5 143 q-55.5 59 -136.5 59 q-82 0 -135.5 -58.5 q-53.5 -58.5 -53.5 -141.5 l0 -2 q0 -84 55 -142.5 q55 -58.5 136 -58.5 ZM209 586 l-47 13 q15 56 37 80.5 q22 24.5 58 24.5 q24 0 71 -20 q47 -20 63 -20 q19 0 29.5 10.5 q10.5 10.5 22.5 38.5 l47 -13 q-15 -56 -37 -80.5 q-22 -24.5 -58 -24.5 q-24 0 -71 20 q-47 20 -63 20 q-19 0 -29.5 -10.5 q-10.5 -10.5 -22.5 -38.5 Z" /><glyph glyph-name="odieresis" unicode="ö" d="M366 595 l0 95 l89 0 l0 -95 l-89 0 ZM191 595 l0 95 l89 0 l0 -95 l-89 0 ZM515 67.5 q-78 -79.5 -193 -79.5 q-115 0 -191.5 78.5 q-76.5 78.5 -76.5 189.5 l0 2 q0 111 77.5 190.5 q77.5 79.5 192.5 79.5 q115 0 192 -78.5 q77 -78.5 77 -189.5 l0 -2 q0 -111 -78 -190.5 ZM324 57 q83 0 136.5 58 q53.5 58 53.5 141 l0 2 q0 84 -55.5 143 q-55.5 59 -136.5 59 q-82 0 -135.5 -58.5 q-53.5 -58.5 -53.5 -141.5 l0 -2 q0 -84 55 -142.5 q55 -58.5 136 -58.5 Z" /><glyph glyph-name="divide" unicode="÷" d="M262 499 l0 104 l101 0 l0 -104 l-101 0 ZM557 317 l-489 0 l0 70 l489 0 l0 -70 ZM262 102 l0 103 l101 0 l0 -103 l-101 0 Z" /><glyph glyph-name="oslash" unicode="ø" d="M322 -12 q-90 0 -161 53 l-45 -46 l-77 0 l79 85 q-64 75 -64 176 l0 2 q0 111 77.5 190.5 q77.5 79.5 192.5 79.5 q93 0 161 -54 l45 49 l78 0 q-69 -73 -80 -86 q65 -75 65 -177 l0 -2 q0 -111 -78 -190.5 q-78 -79.5 -193 -79.5 ZM170 136 l268 283 q-52 42 -116 42 q-83 0 -136.5 -58.5 q-53.5 -58.5 -53.5 -142.5 l0 -2 q0 -67 38 -122 ZM324 56 q83 0 137 58.5 q54 58.5 54 141.5 l0 2 q0 68 -39 122 l-267 -283 q49 -41 115 -41 Z" /><glyph glyph-name="ugrave" unicode="ù" d="M276 -11 q-92 0 -145 56.5 q-53 56.5 -53 150.5 l0 321 l77 0 l0 -302 q0 -73 37.5 -114.5 q37.5 -41.5 105.5 -41.5 q67 0 111 45 q44 45 44 117 l0 296 l76 0 l0 -517 l-76 0 l0 90 q-63 -101 -177 -101 ZM274 595 l-114 108 l80 37 l94 -145 l-60 0 Z" /><glyph glyph-name="uacute" unicode="ú" d="M272 595 l94 145 l80 -37 l-114 -108 l-60 0 ZM276 -11 q-92 0 -145 56.5 q-53 56.5 -53 150.5 l0 321 l77 0 l0 -302 q0 -73 37.5 -114.5 q37.5 -41.5 105.5 -41.5 q67 0 111 45 q44 45 44 117 l0 296 l76 0 l0 -517 l-76 0 l0 90 q-63 -101 -177 -101 Z" /><glyph glyph-name="ucircumflex" unicode="û" d="M163 595 l106 131 l68 0 l106 -131 l-66 0 l-75 67 l-75 -67 l-64 0 ZM276 -11 q-92 0 -145 56.5 q-53 56.5 -53 150.5 l0 321 l77 0 l0 -302 q0 -73 37.5 -114.5 q37.5 -41.5 105.5 -41.5 q67 0 111 45 q44 45 44 117 l0 296 l76 0 l0 -517 l-76 0 l0 90 q-63 -101 -177 -101 Z" /><glyph glyph-name="udieresis" unicode="ü" d="M346 595 l0 95 l89 0 l0 -95 l-89 0 ZM171 595 l0 95 l89 0 l0 -95 l-89 0 ZM276 -11 q-92 0 -145 56.5 q-53 56.5 -53 150.5 l0 321 l77 0 l0 -302 q0 -73 37.5 -114.5 q37.5 -41.5 105.5 -41.5 q67 0 111 45 q44 45 44 117 l0 296 l76 0 l0 -517 l-76 0 l0 90 q-63 -101 -177 -101 Z" /><glyph glyph-name="yacute" unicode="ý" d="M166 -163 q-56 0 -110 26 l26 61 q37 -19 81 -19 q35 0 59 21.5 q24 21.5 47 75.5 l-235 515 l85 0 l188 -431 l166 431 l82 0 l-217 -534 q-33 -79 -73 -112.5 q-40 -33.5 -99 -33.5 ZM267 595 l94 145 l80 -37 l-114 -108 l-60 0 Z" /><glyph glyph-name="thorn" unicode="þ" d="M86 -160 l0 890 l77 0 l0 -317 q78 115 198 115 q99 0 173 -73 q74 -73 74 -195 l0 -2 q0 -121 -74 -195 q-74 -74 -173 -74 q-122 0 -198 110 l0 -259 l-77 0 ZM347 58 q78 0 130 54 q52 54 52 145 l0 2 q0 89 -53 144.5 q-53 55.5 -129 55.5 q-75 0 -131 -56.5 q-56 -56.5 -56 -142.5 l0 -2 q0 -87 56 -143.5 q56 -56.5 131 -56.5 Z" /><glyph glyph-name="ydieresis" unicode="ÿ" d="M166 -163 q-56 0 -110 26 l26 61 q37 -19 81 -19 q35 0 59 21.5 q24 21.5 47 75.5 l-235 515 l85 0 l188 -431 l166 431 l82 0 l-217 -534 q-33 -79 -73 -112.5 q-40 -33.5 -99 -33.5 ZM341 595 l0 95 l89 0 l0 -95 l-89 0 ZM166 595 l0 95 l89 0 l0 -95 l-89 0 Z" /><glyph glyph-name="Amacron" unicode="&#x100;" d="M39 0 l319 705 l74 0 l319 -705 l-85 0 l-82 185 l-381 0 l-83 -185 l-81 0 ZM234 256 l319 0 l-159 357 l-160 -357 ZM231 793 l0 64 l328 0 l0 -64 l-328 0 Z" /><glyph glyph-name="amacron" unicode="&#x101;" d="M240 -11 q-78 0 -135.5 43 q-57.5 43 -57.5 118 l0 2 q0 81 60 125 q60 44 161 44 q80 0 158 -22 l0 16 q0 68 -40 104 q-40 36 -113 36 q-76 0 -157 -37 l-23 63 q96 44 188 44 q110 0 167 -57 q54 -54 54 -152 l0 -316 l-76 0 l0 77 q-69 -88 -186 -88 ZM255 51 q72 0 122 39 q50 39 50 100 l0 48 q-76 22 -151 22 q-71 0 -111 -28.5 q-40 -28.5 -40 -75.5 l0 -2 q0 -47 37.5 -75 q37.5 -28 92.5 -28 ZM133 615 l0 63 l312 0 l0 -63 l-312 0 Z" /><glyph glyph-name="Abreve" unicode="&#x102;" d="M39 0 l319 705 l74 0 l319 -705 l-85 0 l-82 185 l-381 0 l-83 -185 l-81 0 ZM234 256 l319 0 l-159 357 l-160 -357 ZM498.5 800.5 q-40.5 -30.5 -103.5 -30.5 q-63 0 -103.5 30.5 q-40.5 30.5 -44.5 83.5 l60 0 q18 -52 88 -52 q70 0 88 52 l60 0 q-4 -53 -44.5 -83.5 Z" /><glyph glyph-name="abreve" unicode="&#x103;" d="M240 -11 q-78 0 -135.5 43 q-57.5 43 -57.5 118 l0 2 q0 81 60 125 q60 44 161 44 q80 0 158 -22 l0 16 q0 68 -40 104 q-40 36 -113 36 q-76 0 -157 -37 l-23 63 q96 44 188 44 q110 0 167 -57 q54 -54 54 -152 l0 -316 l-76 0 l0 77 q-69 -88 -186 -88 ZM255 51 q72 0 122 39 q50 39 50 100 l0 48 q-76 22 -151 22 q-71 0 -111 -28.5 q-40 -28.5 -40 -75.5 l0 -2 q0 -47 37.5 -75 q37.5 -28 92.5 -28 ZM392.5 626 q-40.5 -33 -103.5 -33 q-63 0 -103.5 33 q-40.5 33 -44.5 92 l56 0 q20 -63 92 -63 q72 0 92 63 l56 0 q-4 -59 -44.5 -92 Z" /><glyph glyph-name="Aogonek" unicode="&#x104;" d="M759 -164 q-67 -1 -103.5 20.5 q-36.5 21.5 -36.5 59.5 q0 40 47 84 l-82 185 l-381 0 l-83 -185 l-81 0 l319 705 l74 0 l319 -705 l-18 0 q-48 -41 -48 -73 q0 -43 74 -47 l0 -44 ZM234 256 l319 0 l-159 357 l-160 -357 Z" /><glyph glyph-name="aogonek" unicode="&#x105;" d="M513 -164 q-67 -1 -103.5 20.5 q-36.5 21.5 -36.5 59.5 q0 42 53 89 l0 72 q-69 -88 -186 -88 q-78 0 -135.5 43 q-57.5 43 -57.5 118 l0 2 q0 81 60 125 q60 44 161 44 q80 0 158 -22 l0 16 q0 68 -40 104 q-40 36 -113 36 q-76 0 -157 -37 l-23 63 q96 44 188 44 q110 0 167 -57 q54 -54 54 -152 l0 -316 l-15 0 q-48 -41 -48 -73 q0 -43 74 -47 l0 -44 ZM255 51 q72 0 122 39 q50 39 50 100 l0 48 q-76 22 -151 22 q-71 0 -111 -28.5 q-40 -28.5 -40 -75.5 l0 -2 q0 -47 37.5 -75 q37.5 -28 92.5 -28 Z" /><glyph glyph-name="Cacute" unicode="&#x106;" d="M419 -12 q-150 0 -250.5 104 q-100.5 104 -100.5 256 l0 2 q0 151 101 256.5 q101 105.5 253 105.5 q89 0 152 -28 q63 -28 121 -83 l-54 -58 q-101 96 -220 96 q-116 0 -193.5 -83 q-77.5 -83 -77.5 -204 l0 -2 q0 -122 78 -205.5 q78 -83.5 193 -83.5 q68 0 120 25 q52 25 106 76 l52 -51 q-60 -61 -125 -92 q-65 -31 -155 -31 ZM382 772 l100 129 l79 -36 l-115 -93 l-64 0 Z" /><glyph glyph-name="cacute" unicode="&#x107;" d="M282 595 l94 145 l80 -37 l-114 -108 l-60 0 ZM319 -12 q-112 0 -188.5 79 q-76.5 79 -76.5 189 l0 2 q0 111 76.5 190.5 q76.5 79.5 188.5 79.5 q120 0 207 -92 l-51 -54 q-74 78 -157 78 q-78 0 -131.5 -58 q-53.5 -58 -53.5 -142 l0 -2 q0 -84 54.5 -142.5 q54.5 -58.5 135.5 -58.5 q86 0 158 77 l49 -46 q-90 -100 -211 -100 Z" /><glyph glyph-name="Cdotaccent" unicode="&#x10a;" d="M366 772 l0 90 l96 0 l0 -90 l-96 0 ZM419 -12 q-150 0 -250.5 104 q-100.5 104 -100.5 256 l0 2 q0 151 101 256.5 q101 105.5 253 105.5 q89 0 152 -28 q63 -28 121 -83 l-54 -58 q-101 96 -220 96 q-116 0 -193.5 -83 q-77.5 -83 -77.5 -204 l0 -2 q0 -122 78 -205.5 q78 -83.5 193 -83.5 q68 0 120 25 q52 25 106 76 l52 -51 q-60 -61 -125 -92 q-65 -31 -155 -31 Z" /><glyph glyph-name="cdotaccent" unicode="&#x10b;" d="M319 -12 q-112 0 -188.5 79 q-76.5 79 -76.5 189 l0 2 q0 111 76.5 190.5 q76.5 79.5 188.5 79.5 q120 0 207 -92 l-51 -54 q-74 78 -157 78 q-78 0 -131.5 -58 q-53.5 -58 -53.5 -142 l0 -2 q0 -84 54.5 -142.5 q54.5 -58.5 135.5 -58.5 q86 0 158 77 l49 -46 q-90 -100 -211 -100 ZM267 595 l0 96 l94 0 l0 -96 l-94 0 Z" /><glyph glyph-name="Ccaron" unicode="&#x10c;" d="M419 -12 q-150 0 -250.5 104 q-100.5 104 -100.5 256 l0 2 q0 151 101 256.5 q101 105.5 253 105.5 q89 0 152 -28 q63 -28 121 -83 l-54 -58 q-101 96 -220 96 q-116 0 -193.5 -83 q-77.5 -83 -77.5 -204 l0 -2 q0 -122 78 -205.5 q78 -83.5 193 -83.5 q68 0 120 25 q52 25 106 76 l52 -51 q-60 -61 -125 -92 q-65 -31 -155 -31 ZM560 890 l-110 -118 l-72 0 l-110 118 l72 0 l75 -60 l75 60 l70 0 Z" /><glyph glyph-name="ccaron" unicode="&#x10d;" d="M454 726 l-106 -131 l-68 0 l-106 131 l66 0 l75 -67 l75 67 l64 0 ZM319 -12 q-112 0 -188.5 79 q-76.5 79 -76.5 189 l0 2 q0 111 76.5 190.5 q76.5 79.5 188.5 79.5 q120 0 207 -92 l-51 -54 q-74 78 -157 78 q-78 0 -131.5 -58 q-53.5 -58 -53.5 -142 l0 -2 q0 -84 54.5 -142.5 q54.5 -58.5 135.5 -58.5 q86 0 158 77 l49 -46 q-90 -100 -211 -100 Z" /><glyph glyph-name="Dcaron" unicode="&#x10e;" d="M521 880 l-110 -118 l-72 0 l-110 118 l72 0 l75 -60 l75 60 l70 0 ZM99 0 l0 700 l243 0 q163 0 267.5 -99.5 q104.5 -99.5 104.5 -248.5 l0 -2 q0 -150 -104.5 -250 q-104.5 -100 -267.5 -100 l-243 0 ZM178 73 l164 0 q130 0 210 78 q80 78 80 197 l0 2 q0 119 -80 198 q-80 79 -210 79 l-164 0 l0 -554 Z" /><glyph glyph-name="dcaron" unicode="&#x10f;" d="M642 565 l15 165 l74 0 l0 -3 l-52 -162 l-37 0 ZM303 -11 q-99 0 -173 73 q-74 73 -74 195 l0 2 q0 121 74 195 q74 74 173 74 q122 0 198 -110 l0 312 l77 0 l0 -730 l-77 0 l0 104 q-78 -115 -198 -115 ZM317 58 q75 0 131 56.5 q56 56.5 56 143.5 l0 2 q0 86 -56 142.5 q-56 56.5 -131 56.5 q-78 0 -130 -54 q-52 -54 -52 -145 l0 -2 q0 -89 53 -144.5 q53 -55.5 129 -55.5 Z" /><glyph glyph-name="Dcroat" unicode="&#x110;" d="M129 0 l0 316 l-75 0 l0 72 l75 0 l0 312 l243 0 q163 0 267.5 -99.5 q104.5 -99.5 104.5 -248.5 l0 -2 q0 -150 -104.5 -250 q-104.5 -100 -267.5 -100 l-243 0 ZM208 73 l164 0 q130 0 210 78 q80 78 80 197 l0 2 q0 119 -80 198 q-80 79 -210 79 l-164 0 l0 -239 l210 0 l0 -72 l-210 0 l0 -243 Z" /><glyph glyph-name="dcroat" unicode="&#x111;" d="M324 611 l0 56 l177 0 l0 63 l77 0 l0 -63 l69 0 l0 -56 l-69 0 l0 -611 l-77 0 l0 104 q-78 -115 -198 -115 q-99 0 -173 73 q-74 73 -74 195 l0 2 q0 121 74 195 q74 74 173 74 q122 0 198 -110 l0 193 l-177 0 ZM317 58 q75 0 131 56.5 q56 56.5 56 143.5 l0 2 q0 86 -56 142.5 q-56 56.5 -131 56.5 q-78 0 -130 -54 q-52 -54 -52 -145 l0 -2 q0 -89 53 -144.5 q53 -55.5 129 -55.5 Z" /><glyph glyph-name="Emacron" unicode="&#x112;" d="M189 783 l0 64 l328 0 l0 -64 l-328 0 ZM99 0 l0 700 l506 0 l0 -72 l-427 0 l0 -239 l382 0 l0 -72 l-382 0 l0 -245 l432 0 l0 -72 l-511 0 Z" /><glyph glyph-name="emacron" unicode="&#x113;" d="M132 227 q8 -79 59.5 -125.5 q51.5 -46.5 122.5 -46.5 q93 0 163 73 l48 -43 q-87 -97 -213 -97 q-109 0 -183.5 75.5 q-74.5 75.5 -74.5 194.5 q0 113 71 191.5 q71 78.5 177 78.5 q111 0 176 -78 q65 -78 65 -196 q0 -15 -1 -27 l-410 0 ZM132 289 l333 0 q-7 75 -49.5 124.5 q-42.5 49.5 -115.5 49.5 q-66 0 -113 -49 q-47 -49 -55 -125 ZM145 615 l0 63 l312 0 l0 -63 l-312 0 Z" /><glyph glyph-name="Ebreve" unicode="&#x114;" d="M456.5 790.5 q-40.5 -30.5 -103.5 -30.5 q-63 0 -103.5 30.5 q-40.5 30.5 -44.5 83.5 l60 0 q18 -52 88 -52 q70 0 88 52 l60 0 q-4 -53 -44.5 -83.5 ZM99 0 l0 700 l506 0 l0 -72 l-427 0 l0 -239 l382 0 l0 -72 l-382 0 l0 -245 l432 0 l0 -72 l-511 0 Z" /><glyph glyph-name="ebreve" unicode="&#x115;" d="M132 227 q8 -79 59.5 -125.5 q51.5 -46.5 122.5 -46.5 q93 0 163 73 l48 -43 q-87 -97 -213 -97 q-109 0 -183.5 75.5 q-74.5 75.5 -74.5 194.5 q0 113 71 191.5 q71 78.5 177 78.5 q111 0 176 -78 q65 -78 65 -196 q0 -15 -1 -27 l-410 0 ZM132 289 l333 0 q-7 75 -49.5 124.5 q-42.5 49.5 -115.5 49.5 q-66 0 -113 -49 q-47 -49 -55 -125 ZM404.5 626 q-40.5 -33 -103.5 -33 q-63 0 -103.5 33 q-40.5 33 -44.5 92 l56 0 q20 -63 92 -63 q72 0 92 63 l56 0 q-4 -59 -44.5 -92 Z" /><glyph glyph-name="Edotaccent" unicode="&#x116;" d="M305 762 l0 90 l96 0 l0 -90 l-96 0 ZM99 0 l0 700 l506 0 l0 -72 l-427 0 l0 -239 l382 0 l0 -72 l-382 0 l0 -245 l432 0 l0 -72 l-511 0 Z" /><glyph glyph-name="edotaccent" unicode="&#x117;" d="M132 227 q8 -79 59.5 -125.5 q51.5 -46.5 122.5 -46.5 q93 0 163 73 l48 -43 q-87 -97 -213 -97 q-109 0 -183.5 75.5 q-74.5 75.5 -74.5 194.5 q0 113 71 191.5 q71 78.5 177 78.5 q111 0 176 -78 q65 -78 65 -196 q0 -15 -1 -27 l-410 0 ZM132 289 l333 0 q-7 75 -49.5 124.5 q-42.5 49.5 -115.5 49.5 q-66 0 -113 -49 q-47 -49 -55 -125 ZM254 595 l0 96 l94 0 l0 -96 l-94 0 Z" /><glyph glyph-name="Eogonek" unicode="&#x118;" d="M99 0 l0 700 l506 0 l0 -72 l-427 0 l0 -239 l382 0 l0 -72 l-382 0 l0 -245 l432 0 l0 -72 l-28 0 q-48 -41 -48 -73 q0 -43 74 -47 l0 -44 q-67 -1 -103.5 20.5 q-36.5 21.5 -36.5 59.5 q0 40 47 84 l-416 0 Z" /><glyph glyph-name="eogonek" unicode="&#x119;" d="M477 128 l48 -43 q-22 -25 -54 -51 q-69 -59 -69 -101 q0 -25 17.5 -37.5 q17.5 -12.5 57.5 -15.5 l0 -44 q-68 -1 -104 21 q-36 22 -36 62 q0 37 36 75 q-27 -6 -61 -6 q-109 0 -183.5 75.5 q-74.5 75.5 -74.5 194.5 q0 113 71 191.5 q71 78.5 177 78.5 q111 0 176 -78 q65 -78 65 -196 q0 -15 -1 -27 l-410 0 q8 -79 59.5 -125.5 q51.5 -46.5 122.5 -46.5 q93 0 163 73 ZM132 289 l333 0 q-7 75 -49.5 124.5 q-42.5 49.5 -115.5 49.5 q-66 0 -113 -49 q-47 -49 -55 -125 Z" /><glyph glyph-name="Ecaron" unicode="&#x11a;" d="M499 880 l-110 -118 l-72 0 l-110 118 l72 0 l75 -60 l75 60 l70 0 ZM99 0 l0 700 l506 0 l0 -72 l-427 0 l0 -239 l382 0 l0 -72 l-382 0 l0 -245 l432 0 l0 -72 l-511 0 Z" /><glyph glyph-name="ecaron" unicode="&#x11b;" d="M441 726 l-106 -131 l-68 0 l-106 131 l66 0 l75 -67 l75 67 l64 0 ZM132 227 q8 -79 59.5 -125.5 q51.5 -46.5 122.5 -46.5 q93 0 163 73 l48 -43 q-87 -97 -213 -97 q-109 0 -183.5 75.5 q-74.5 75.5 -74.5 194.5 q0 113 71 191.5 q71 78.5 177 78.5 q111 0 176 -78 q65 -78 65 -196 q0 -15 -1 -27 l-410 0 ZM132 289 l333 0 q-7 75 -49.5 124.5 q-42.5 49.5 -115.5 49.5 q-66 0 -113 -49 q-47 -49 -55 -125 Z" /><glyph glyph-name="Gbreve" unicode="&#x11e;" d="M515.5 800.5 q-40.5 -30.5 -103.5 -30.5 q-63 0 -103.5 30.5 q-40.5 30.5 -44.5 83.5 l60 0 q18 -52 88 -52 q70 0 88 52 l60 0 q-4 -53 -44.5 -83.5 ZM705 95 q-120 -107 -281 -107 q-161 0 -258.5 103 q-97.5 103 -97.5 257 l0 2 q0 148 99 255 q99 107 252 107 q84 0 144.5 -23 q60.5 -23 116.5 -70 l-51 -60 q-92 80 -213 80 q-114 0 -190 -84 q-76 -84 -76 -203 l0 -2 q0 -127 75.5 -209 q75.5 -82 201.5 -82 q116 0 202 70 l0 174 l-213 0 l0 71 l289 0 l0 -279 Z" /><glyph glyph-name="gbreve" unicode="&#x11f;" d="M315 -162 q-131 0 -235 72 l35 60 q91 -66 199 -66 q87 0 137.5 47.5 q50.5 47.5 50.5 136.5 l0 61 q-82 -109 -203 -109 q-98 0 -170.5 67.5 q-72.5 67.5 -72.5 174.5 l0 2 q0 109 73 176.5 q73 67.5 170 67.5 q124 0 202 -104 l0 93 l77 0 l0 -427 q0 -117 -66 -183 q-69 -69 -197 -69 ZM314 108 q76 0 133 49.5 q57 49.5 57 125.5 l0 2 q0 77 -56.5 126 q-56.5 49 -133.5 49 q-75 0 -127 -48 q-52 -48 -52 -126 l0 -2 q0 -76 52.5 -126 q52.5 -50 126.5 -50 ZM438.5 626 q-40.5 -33 -103.5 -33 q-63 0 -103.5 33 q-40.5 33 -44.5 92 l56 0 q20 -63 92 -63 q72 0 92 63 l56 0 q-4 -59 -44.5 -92 Z" /><glyph glyph-name="Gdotaccent" unicode="&#x120;" d="M364 772 l0 90 l96 0 l0 -90 l-96 0 ZM705 95 q-120 -107 -281 -107 q-161 0 -258.5 103 q-97.5 103 -97.5 257 l0 2 q0 148 99 255 q99 107 252 107 q84 0 144.5 -23 q60.5 -23 116.5 -70 l-51 -60 q-92 80 -213 80 q-114 0 -190 -84 q-76 -84 -76 -203 l0 -2 q0 -127 75.5 -209 q75.5 -82 201.5 -82 q116 0 202 70 l0 174 l-213 0 l0 71 l289 0 l0 -279 Z" /><glyph glyph-name="gdotaccent" unicode="&#x121;" d="M315 -162 q-131 0 -235 72 l35 60 q91 -66 199 -66 q87 0 137.5 47.5 q50.5 47.5 50.5 136.5 l0 61 q-82 -109 -203 -109 q-98 0 -170.5 67.5 q-72.5 67.5 -72.5 174.5 l0 2 q0 109 73 176.5 q73 67.5 170 67.5 q124 0 202 -104 l0 93 l77 0 l0 -427 q0 -117 -66 -183 q-69 -69 -197 -69 ZM314 108 q76 0 133 49.5 q57 49.5 57 125.5 l0 2 q0 77 -56.5 126 q-56.5 49 -133.5 49 q-75 0 -127 -48 q-52 -48 -52 -126 l0 -2 q0 -76 52.5 -126 q52.5 -50 126.5 -50 ZM288 595 l0 96 l94 0 l0 -96 l-94 0 Z" /><glyph glyph-name="Gcommaaccent" unicode="&#x122;" d="M352 -244 l-7 30 q34 6 48.5 20.5 q14.5 14.5 12.5 39.5 l-40 0 l0 83 l90 0 l0 -71 q0 -91 -104 -102 ZM705 95 q-120 -107 -281 -107 q-161 0 -258.5 103 q-97.5 103 -97.5 257 l0 2 q0 148 99 255 q99 107 252 107 q84 0 144.5 -23 q60.5 -23 116.5 -70 l-51 -60 q-92 80 -213 80 q-114 0 -190 -84 q-76 -84 -76 -203 l0 -2 q0 -127 75.5 -209 q75.5 -82 201.5 -82 q116 0 202 70 l0 174 l-213 0 l0 71 l289 0 l0 -279 Z" /><glyph glyph-name="gcommaaccent" unicode="&#x123;" d="M393 768 l7 -30 q-34 -6 -48.5 -20.5 q-14.5 -14.5 -12.5 -39.5 l40 0 l0 -83 l-90 0 l0 71 q0 91 104 102 ZM315 -162 q-131 0 -235 72 l35 60 q91 -66 199 -66 q87 0 137.5 47.5 q50.5 47.5 50.5 136.5 l0 61 q-82 -109 -203 -109 q-98 0 -170.5 67.5 q-72.5 67.5 -72.5 174.5 l0 2 q0 109 73 176.5 q73 67.5 170 67.5 q124 0 202 -104 l0 93 l77 0 l0 -427 q0 -117 -66 -183 q-69 -69 -197 -69 ZM314 108 q76 0 133 49.5 q57 49.5 57 125.5 l0 2 q0 77 -56.5 126 q-56.5 49 -133.5 49 q-75 0 -127 -48 q-52 -48 -52 -126 l0 -2 q0 -76 52.5 -126 q52.5 -50 126.5 -50 Z" /><glyph glyph-name="Hbar" unicode="&#x126;" d="M47 510 l0 61 l74 0 l0 129 l79 0 l0 -129 l404 0 l0 129 l79 0 l0 -129 l74 0 l0 -61 l-74 0 l0 -510 l-79 0 l0 312 l-404 0 l0 -312 l-79 0 l0 510 l-74 0 ZM200 386 l404 0 l0 124 l-404 0 l0 -124 Z" /><glyph glyph-name="hbar" unicode="&#x127;" d="M86 0 l0 611 l-69 0 l0 56 l69 0 l0 63 l77 0 l0 -63 l177 0 l0 -56 l-177 0 l0 -184 q61 101 177 101 q92 0 145 -56.5 q53 -56.5 53 -150.5 l0 -321 l-77 0 l0 302 q0 73 -37.5 114.5 q-37.5 41.5 -105.5 41.5 q-67 0 -111 -45 q-44 -45 -44 -117 l0 -296 l-77 0 Z" /><glyph glyph-name="Imacron" unicode="&#x12a;" d="M106 0 l0 700 l79 0 l0 -700 l-79 0 ZM-18 783 l0 64 l328 0 l0 -64 l-328 0 Z" /><glyph glyph-name="imacron" unicode="&#x12b;" d="M93 0 l0 517 l77 0 l0 -517 l-77 0 ZM-24 615 l0 63 l312 0 l0 -63 l-312 0 Z" /><glyph glyph-name="Ibreve" unicode="&#x12c;" d="M106 0 l0 700 l79 0 l0 -700 l-79 0 ZM249.5 790.5 q-40.5 -30.5 -103.5 -30.5 q-63 0 -103.5 30.5 q-40.5 30.5 -44.5 83.5 l60 0 q18 -52 88 -52 q70 0 88 52 l60 0 q-4 -53 -44.5 -83.5 Z" /><glyph glyph-name="ibreve" unicode="&#x12d;" d="M93 0 l0 517 l77 0 l0 -517 l-77 0 ZM235.5 626 q-40.5 -33 -103.5 -33 q-63 0 -103.5 33 q-40.5 33 -44.5 92 l56 0 q20 -63 92 -63 q72 0 92 63 l56 0 q-4 -59 -44.5 -92 Z" /><glyph glyph-name="Iogonek" unicode="&#x12e;" d="M106 0 l0 700 l79 0 l0 -700 l-10 0 q-48 -41 -48 -73 q0 -43 74 -47 l0 -44 q-67 -1 -103.5 20.5 q-36.5 21.5 -36.5 59.5 q0 40 47 84 l-2 0 Z" /><glyph glyph-name="iogonek" unicode="&#x12f;" d="M93 0 l0 517 l77 0 l0 -517 l-9 0 q-48 -41 -48 -73 q0 -43 74 -47 l0 -44 q-67 -1 -103.5 20.5 q-36.5 21.5 -36.5 59.5 q0 40 47 84 l-1 0 ZM88 630 l0 85 l88 0 l0 -85 l-88 0 Z" /><glyph glyph-name="Idotaccent" unicode="&#x130;" d="M106 0 l0 700 l79 0 l0 -700 l-79 0 ZM98 762 l0 90 l96 0 l0 -90 l-96 0 Z" /><glyph glyph-name="dotlessi" unicode="&#x131;" d="M93 0 l0 517 l77 0 l0 -517 l-77 0 Z" /><glyph glyph-name="Kcommaaccent" unicode="&#x136;" d="M303 -238 l-7 30 q34 6 48.5 20.5 q14.5 14.5 12.5 39.5 l-40 0 l0 83 l90 0 l0 -71 q0 -91 -104 -102 ZM99 0 l0 700 l79 0 l0 -418 l402 418 l102 0 l-300 -306 l313 -394 l-99 0 l-269 339 l-149 -151 l0 -188 l-79 0 Z" /><glyph glyph-name="kcommaaccent" unicode="&#x137;" d="M239 -243 l-7 30 q34 6 48.5 20.5 q14.5 14.5 12.5 39.5 l-40 0 l0 83 l90 0 l0 -71 q0 -91 -104 -102 ZM86 0 l0 730 l77 0 l0 -504 l279 291 l96 0 l-217 -222 l224 -295 l-92 0 l-185 241 l-105 -106 l0 -135 l-77 0 Z" /><glyph glyph-name="Lacute" unicode="&#x139;" d="M118 762 l100 129 l79 -36 l-115 -93 l-64 0 ZM99 0 l0 700 l79 0 l0 -627 l394 0 l0 -73 l-473 0 Z" /><glyph glyph-name="lacute" unicode="&#x13a;" d="M101 782 l100 129 l79 -36 l-115 -93 l-64 0 ZM93 0 l0 730 l77 0 l0 -730 l-77 0 Z" /><glyph glyph-name="Lcommaaccent" unicode="&#x13b;" d="M272 -243 l-7 30 q34 6 48.5 20.5 q14.5 14.5 12.5 39.5 l-40 0 l0 83 l90 0 l0 -71 q0 -91 -104 -102 ZM99 0 l0 700 l79 0 l0 -627 l394 0 l0 -73 l-473 0 Z" /><glyph glyph-name="lcommaaccent" unicode="&#x13c;" d="M72 -243 l-7 30 q34 6 48.5 20.5 q14.5 14.5 12.5 39.5 l-40 0 l0 83 l90 0 l0 -71 q0 -91 -104 -102 ZM93 0 l0 730 l77 0 l0 -730 l-77 0 Z" /><glyph glyph-name="Lcaron" unicode="&#x13d;" d="M270 535 l15 165 l74 0 l0 -3 l-52 -162 l-37 0 ZM99 0 l0 700 l79 0 l0 -627 l394 0 l0 -73 l-473 0 Z" /><glyph glyph-name="lcaron" unicode="&#x13e;" d="M234 565 l15 165 l74 0 l0 -3 l-52 -162 l-37 0 ZM93 0 l0 730 l77 0 l0 -730 l-77 0 Z" /><glyph glyph-name="Ldot" unicode="&#x13f;" d="M418 320 l0 96 l92 0 l0 -96 l-92 0 ZM99 0 l0 700 l79 0 l0 -627 l394 0 l0 -73 l-473 0 Z" /><glyph glyph-name="ldot" unicode="&#x140;" d="M256 323 l0 92 l85 0 l0 -92 l-85 0 ZM93 0 l0 730 l77 0 l0 -730 l-77 0 Z" /><glyph glyph-name="Lslash" unicode="&#x141;" d="M385 401 l-177 -83 l0 -245 l394 0 l0 -73 l-473 0 l0 282 l-75 -35 l0 77 l75 35 l0 341 l79 0 l0 -305 l177 83 l0 -77 Z" /><glyph glyph-name="lslash" unicode="&#x142;" d="M276 392 l-75 -41 l0 -351 l-77 0 l0 310 l-76 -41 l0 78 l76 40 l0 343 l77 0 l0 -301 l75 40 l0 -77 Z" /><glyph glyph-name="Nacute" unicode="&#x143;" d="M363 759 l100 129 l79 -36 l-115 -93 l-64 0 ZM99 0 l0 700 l74 0 l441 -561 l0 561 l77 0 l0 -700 l-63 0 l-452 574 l0 -574 l-77 0 Z" /><glyph glyph-name="nacute" unicode="&#x144;" d="M280 595 l94 145 l80 -37 l-114 -108 l-60 0 ZM86 0 l0 517 l77 0 l0 -90 q61 101 177 101 q92 0 145 -56.5 q53 -56.5 53 -150.5 l0 -321 l-77 0 l0 302 q0 73 -37.5 114.5 q-37.5 41.5 -105.5 41.5 q-67 0 -111 -45 q-44 -45 -44 -117 l0 -296 l-77 0 Z" /><glyph glyph-name="Ncommaaccent" unicode="&#x145;" d="M335 -238 l-7 30 q34 6 48.5 20.5 q14.5 14.5 12.5 39.5 l-40 0 l0 83 l90 0 l0 -71 q0 -91 -104 -102 ZM99 0 l0 700 l74 0 l441 -561 l0 561 l77 0 l0 -700 l-63 0 l-452 574 l0 -574 l-77 0 Z" /><glyph glyph-name="ncommaaccent" unicode="&#x146;" d="M251 -243 l-7 30 q34 6 48.5 20.5 q14.5 14.5 12.5 39.5 l-40 0 l0 83 l90 0 l0 -71 q0 -91 -104 -102 ZM86 0 l0 517 l77 0 l0 -90 q61 101 177 101 q92 0 145 -56.5 q53 -56.5 53 -150.5 l0 -321 l-77 0 l0 302 q0 73 -37.5 114.5 q-37.5 41.5 -105.5 41.5 q-67 0 -111 -45 q-44 -45 -44 -117 l0 -296 l-77 0 Z" /><glyph glyph-name="Ncaron" unicode="&#x147;" d="M541 877 l-110 -118 l-72 0 l-110 118 l72 0 l75 -60 l75 60 l70 0 ZM99 0 l0 700 l74 0 l441 -561 l0 561 l77 0 l0 -700 l-63 0 l-452 574 l0 -574 l-77 0 Z" /><glyph glyph-name="ncaron" unicode="&#x148;" d="M451 726 l-106 -131 l-68 0 l-106 131 l66 0 l75 -67 l75 67 l64 0 ZM86 0 l0 517 l77 0 l0 -90 q61 101 177 101 q92 0 145 -56.5 q53 -56.5 53 -150.5 l0 -321 l-77 0 l0 302 q0 73 -37.5 114.5 q-37.5 41.5 -105.5 41.5 q-67 0 -111 -45 q-44 -45 -44 -117 l0 -296 l-77 0 Z" /><glyph glyph-name="Omacron" unicode="&#x14c;" d="M261 793 l0 64 l328 0 l0 -64 l-328 0 ZM681 94.5 q-101 -106.5 -257 -106.5 q-156 0 -256 105.5 q-100 105.5 -100 254.5 l0 2 q0 149 101 255.5 q101 106.5 257 106.5 q156 0 256 -105.5 q100 -105.5 100 -254.5 l0 -2 q0 -149 -101 -255.5 ZM228.5 145 q78.5 -84 197.5 -84 q119 0 196.5 83 q77.5 83 77.5 204 l0 2 q0 121 -78.5 205 q-78.5 84 -197.5 84 q-119 0 -196.5 -83 q-77.5 -83 -77.5 -204 l0 -2 q0 -121 78.5 -205 Z" /><glyph glyph-name="omacron" unicode="&#x14d;" d="M167 615 l0 63 l312 0 l0 -63 l-312 0 ZM515 67.5 q-78 -79.5 -193 -79.5 q-115 0 -191.5 78.5 q-76.5 78.5 -76.5 189.5 l0 2 q0 111 77.5 190.5 q77.5 79.5 192.5 79.5 q115 0 192 -78.5 q77 -78.5 77 -189.5 l0 -2 q0 -111 -78 -190.5 ZM324 57 q83 0 136.5 58 q53.5 58 53.5 141 l0 2 q0 84 -55.5 143 q-55.5 59 -136.5 59 q-82 0 -135.5 -58.5 q-53.5 -58.5 -53.5 -141.5 l0 -2 q0 -84 55 -142.5 q55 -58.5 136 -58.5 Z" /><glyph glyph-name="Obreve" unicode="&#x14e;" d="M528.5 800.5 q-40.5 -30.5 -103.5 -30.5 q-63 0 -103.5 30.5 q-40.5 30.5 -44.5 83.5 l60 0 q18 -52 88 -52 q70 0 88 52 l60 0 q-4 -53 -44.5 -83.5 ZM681 94.5 q-101 -106.5 -257 -106.5 q-156 0 -256 105.5 q-100 105.5 -100 254.5 l0 2 q0 149 101 255.5 q101 106.5 257 106.5 q156 0 256 -105.5 q100 -105.5 100 -254.5 l0 -2 q0 -149 -101 -255.5 ZM228.5 145 q78.5 -84 197.5 -84 q119 0 196.5 83 q77.5 83 77.5 204 l0 2 q0 121 -78.5 205 q-78.5 84 -197.5 84 q-119 0 -196.5 -83 q-77.5 -83 -77.5 -204 l0 -2 q0 -121 78.5 -205 Z" /><glyph glyph-name="obreve" unicode="&#x14f;" d="M515 67.5 q-78 -79.5 -193 -79.5 q-115 0 -191.5 78.5 q-76.5 78.5 -76.5 189.5 l0 2 q0 111 77.5 190.5 q77.5 79.5 192.5 79.5 q115 0 192 -78.5 q77 -78.5 77 -189.5 l0 -2 q0 -111 -78 -190.5 ZM324 57 q83 0 136.5 58 q53.5 58 53.5 141 l0 2 q0 84 -55.5 143 q-55.5 59 -136.5 59 q-82 0 -135.5 -58.5 q-53.5 -58.5 -53.5 -141.5 l0 -2 q0 -84 55 -142.5 q55 -58.5 136 -58.5 ZM426.5 626 q-40.5 -33 -103.5 -33 q-63 0 -103.5 33 q-40.5 33 -44.5 92 l56 0 q20 -63 92 -63 q72 0 92 63 l56 0 q-4 -59 -44.5 -92 Z" /><glyph glyph-name="Ohungarumlaut" unicode="&#x150;" d="M681 94.5 q-101 -106.5 -257 -106.5 q-156 0 -256 105.5 q-100 105.5 -100 254.5 l0 2 q0 149 101 255.5 q101 106.5 257 106.5 q156 0 256 -105.5 q100 -105.5 100 -254.5 l0 -2 q0 -149 -101 -255.5 ZM228.5 145 q78.5 -84 197.5 -84 q119 0 196.5 83 q77.5 83 77.5 204 l0 2 q0 121 -78.5 205 q-78.5 84 -197.5 84 q-119 0 -196.5 -83 q-77.5 -83 -77.5 -204 l0 -2 q0 -121 78.5 -205 ZM307 772 l100 129 l77 -36 l-115 -93 l-62 0 ZM460 772 l101 129 l77 -36 l-115 -93 l-63 0 Z" /><glyph glyph-name="ohungarumlaut" unicode="&#x151;" d="M358 595 l95 145 l75 -37 l-110 -108 l-60 0 ZM209 595 l94 145 l75 -37 l-109 -108 l-60 0 ZM515 67.5 q-78 -79.5 -193 -79.5 q-115 0 -191.5 78.5 q-76.5 78.5 -76.5 189.5 l0 2 q0 111 77.5 190.5 q77.5 79.5 192.5 79.5 q115 0 192 -78.5 q77 -78.5 77 -189.5 l0 -2 q0 -111 -78 -190.5 ZM324 57 q83 0 136.5 58 q53.5 58 53.5 141 l0 2 q0 84 -55.5 143 q-55.5 59 -136.5 59 q-82 0 -135.5 -58.5 q-53.5 -58.5 -53.5 -141.5 l0 -2 q0 -84 55 -142.5 q55 -58.5 136 -58.5 Z" /><glyph glyph-name="OE" unicode="&#x152;" d="M440 0 q-163 0 -267.5 99.5 q-104.5 99.5 -104.5 248.5 l0 2 q0 150 104.5 250 q104.5 100 267.5 100 l626 0 l0 -72 l-409 0 l0 -239 l364 0 l0 -72 l-364 0 l0 -245 l414 0 l0 -72 l-631 0 ZM440 73 l138 0 l0 554 l-138 0 q-130 0 -210 -78 q-80 -78 -80 -197 l0 -2 q0 -119 80 -198 q80 -79 210 -79 Z" /><glyph glyph-name="oe" unicode="&#x153;" d="M319 -12 q-112 0 -188.5 79 q-76.5 79 -76.5 189 l0 2 q0 111 77.5 190.5 q77.5 79.5 190.5 79.5 q74 0 134 -37.5 q60 -37.5 92 -99.5 q30 63 86 100 q56 37 126 37 q111 0 175.5 -78 q64.5 -78 64.5 -196 q0 -15 -1 -27 l-410 0 q8 -79 59.5 -125.5 q51.5 -46.5 122.5 -46.5 q93 0 163 73 l48 -43 q-85 -97 -212 -97 q-72 0 -131.5 37 q-59.5 37 -91.5 102 q-32 -63 -92.5 -101 q-60.5 -38 -135.5 -38 ZM589 289 l333 0 q-7 75 -49.5 124.5 q-42.5 49.5 -115.5 49.5 q-66 0 -113 -49 q-47 -49 -55 -125 ZM323 57 q82 0 135 58 q53 58 53 141 l0 2 q0 84 -55 143 q-55 59 -135 59 q-82 0 -135 -58.5 q-53 -58.5 -53 -141.5 l0 -2 q0 -84 55 -142.5 q55 -58.5 135 -58.5 Z" /><glyph glyph-name="Racute" unicode="&#x154;" d="M99 0 l0 700 l301 0 q129 0 199 -70 q54 -54 54 -138 l0 -2 q0 -84 -52 -136 q-52 -52 -138 -68 l215 -286 l-97 0 l-203 272 l-200 0 l0 -272 l-79 0 ZM178 343 l215 0 q80 0 130 39 q50 39 50 105 l0 2 q0 65 -47.5 101.5 q-47.5 36.5 -131.5 36.5 l-216 0 l0 -284 ZM319 762 l100 129 l79 -36 l-115 -93 l-64 0 Z" /><glyph glyph-name="racute" unicode="&#x155;" d="M184 595 l94 145 l80 -37 l-114 -108 l-60 0 ZM86 0 l0 517 l77 0 l0 -135 q30 67 85 107 q55 40 126 37 l0 -83 l-6 0 q-89 0 -147 -62 q-58 -62 -58 -175 l0 -206 l-77 0 Z" /><glyph glyph-name="Rcommaaccent" unicode="&#x156;" d="M99 0 l0 700 l301 0 q129 0 199 -70 q54 -54 54 -138 l0 -2 q0 -84 -52 -136 q-52 -52 -138 -68 l215 -286 l-97 0 l-203 272 l-200 0 l0 -272 l-79 0 ZM178 343 l215 0 q80 0 130 39 q50 39 50 105 l0 2 q0 65 -47.5 101.5 q-47.5 36.5 -131.5 36.5 l-216 0 l0 -284 ZM291 -238 l-7 30 q34 6 48.5 20.5 q14.5 14.5 12.5 39.5 l-40 0 l0 83 l90 0 l0 -71 q0 -91 -104 -102 Z" /><glyph glyph-name="rcommaaccent" unicode="&#x157;" d="M73 -243 l-7 30 q34 6 48.5 20.5 q14.5 14.5 12.5 39.5 l-40 0 l0 83 l90 0 l0 -71 q0 -91 -104 -102 ZM86 0 l0 517 l77 0 l0 -135 q30 67 85 107 q55 40 126 37 l0 -83 l-6 0 q-89 0 -147 -62 q-58 -62 -58 -175 l0 -206 l-77 0 Z" /><glyph glyph-name="Rcaron" unicode="&#x158;" d="M99 0 l0 700 l301 0 q129 0 199 -70 q54 -54 54 -138 l0 -2 q0 -84 -52 -136 q-52 -52 -138 -68 l215 -286 l-97 0 l-203 272 l-200 0 l0 -272 l-79 0 ZM178 343 l215 0 q80 0 130 39 q50 39 50 105 l0 2 q0 65 -47.5 101.5 q-47.5 36.5 -131.5 36.5 l-216 0 l0 -284 ZM497 880 l-110 -118 l-72 0 l-110 118 l72 0 l75 -60 l75 60 l70 0 Z" /><glyph glyph-name="rcaron" unicode="&#x159;" d="M356 726 l-106 -131 l-68 0 l-106 131 l66 0 l75 -67 l75 67 l64 0 ZM86 0 l0 517 l77 0 l0 -135 q30 67 85 107 q55 40 126 37 l0 -83 l-6 0 q-89 0 -147 -62 q-58 -62 -58 -175 l0 -206 l-77 0 Z" /><glyph glyph-name="Sacute" unicode="&#x15a;" d="M339 -10 q-161 0 -286 112 l49 58 q56 -51 112.5 -75 q56.5 -24 127.5 -24 q70 0 113 33.5 q43 33.5 43 85.5 l0 2 q0 51 -38 81 q-38 30 -144 52 q-124 27 -179.5 72.5 q-55.5 45.5 -55.5 129.5 l0 2 q0 83 65 137 q65 54 165 54 q139 0 246 -86 l-46 -61 q-93 76 -202 76 q-67 0 -108 -32.5 q-41 -32.5 -41 -80.5 l0 -2 q0 -52 39.5 -82 q39.5 -30 150.5 -54 q119 -26 173.5 -72.5 q54.5 -46.5 54.5 -125.5 l0 -2 q0 -89 -67 -143.5 q-67 -54.5 -172 -54.5 ZM295 772 l100 129 l79 -36 l-115 -93 l-64 0 Z" /><glyph glyph-name="sacute" unicode="&#x15b;" d="M221 595 l94 145 l80 -37 l-114 -108 l-60 0 ZM257 -10 q-56 0 -113.5 20.5 q-57.5 20.5 -100.5 55.5 l39 55 q88 -66 179 -66 q47 0 77 22.5 q30 22.5 30 59.5 l0 2 q0 35 -32.5 54 q-32.5 19 -96.5 37 q-39 11 -62 20 q-23 9 -52 25.5 q-29 16.5 -43 41.5 q-14 25 -14 59 l0 2 q0 66 49.5 107 q49.5 41 126.5 41 q100 0 186 -57 l-35 -58 q-77 50 -153 50 q-45 0 -72.5 -21 q-27.5 -21 -27.5 -54 l0 -2 q0 -14 8 -26 q8 -12 18 -20 q10 -8 31.5 -17 q21.5 -9 34.5 -13 q13 -4 41 -13 q29 -9 48.5 -16 q19.5 -7 44 -19.5 q24.5 -12.5 39 -27 q14.5 -14.5 24.5 -36.5 q10 -22 10 -49 l0 -2 q0 -72 -52 -113.5 q-52 -41.5 -132 -41.5 Z" /><glyph glyph-name="Scedilla" unicode="&#x15e;" d="M295 -155 l-75 34 l77 113 q-135 12 -244 110 l49 58 q56 -51 112.5 -75 q56.5 -24 127.5 -24 q70 0 113 33.5 q43 33.5 43 85.5 l0 2 q0 51 -38 81 q-38 30 -144 52 q-124 27 -179.5 72.5 q-55.5 45.5 -55.5 129.5 l0 2 q0 83 65 137 q65 54 165 54 q139 0 246 -86 l-46 -61 q-93 76 -202 76 q-67 0 -108 -32.5 q-41 -32.5 -41 -80.5 l0 -2 q0 -52 39.5 -82 q39.5 -30 150.5 -54 q119 -26 173.5 -72.5 q54.5 -46.5 54.5 -125.5 l0 -2 q0 -84 -59.5 -137 q-59.5 -53 -156.5 -60 l-67 -146 Z" /><glyph glyph-name="scedilla" unicode="&#x15f;" d="M210 -155 l-75 34 l78 114 q-95 12 -170 73 l39 55 q88 -66 179 -66 q47 0 77 22.5 q30 22.5 30 59.5 l0 2 q0 35 -32.5 54 q-32.5 19 -96.5 37 q-39 11 -62 20 q-23 9 -52 25.5 q-29 16.5 -43 41.5 q-14 25 -14 59 l0 2 q0 66 49.5 107 q49.5 41 126.5 41 q100 0 186 -57 l-35 -58 q-77 50 -153 50 q-45 0 -72.5 -21 q-27.5 -21 -27.5 -54 l0 -2 q0 -14 8 -26 q8 -12 18 -20 q10 -8 31.5 -17 q21.5 -9 34.5 -13 q13 -4 41 -13 q29 -9 48.5 -16 q19.5 -7 44 -19.5 q24.5 -12.5 39 -27 q14.5 -14.5 24.5 -36.5 q10 -22 10 -49 l0 -2 q0 -67 -46 -108 q-46 -41 -118 -46 l-67 -146 Z" /><glyph glyph-name="Scaron" unicode="&#x160;" d="M339 -10 q-161 0 -286 112 l49 58 q56 -51 112.5 -75 q56.5 -24 127.5 -24 q70 0 113 33.5 q43 33.5 43 85.5 l0 2 q0 51 -38 81 q-38 30 -144 52 q-124 27 -179.5 72.5 q-55.5 45.5 -55.5 129.5 l0 2 q0 83 65 137 q65 54 165 54 q139 0 246 -86 l-46 -61 q-93 76 -202 76 q-67 0 -108 -32.5 q-41 -32.5 -41 -80.5 l0 -2 q0 -52 39.5 -82 q39.5 -30 150.5 -54 q119 -26 173.5 -72.5 q54.5 -46.5 54.5 -125.5 l0 -2 q0 -89 -67 -143.5 q-67 -54.5 -172 -54.5 ZM472 890 l-110 -118 l-72 0 l-110 118 l72 0 l75 -60 l75 60 l70 0 Z" /><glyph glyph-name="scaron" unicode="&#x161;" d="M392 726 l-106 -131 l-68 0 l-106 131 l66 0 l75 -67 l75 67 l64 0 ZM257 -10 q-56 0 -113.5 20.5 q-57.5 20.5 -100.5 55.5 l39 55 q88 -66 179 -66 q47 0 77 22.5 q30 22.5 30 59.5 l0 2 q0 35 -32.5 54 q-32.5 19 -96.5 37 q-39 11 -62 20 q-23 9 -52 25.5 q-29 16.5 -43 41.5 q-14 25 -14 59 l0 2 q0 66 49.5 107 q49.5 41 126.5 41 q100 0 186 -57 l-35 -58 q-77 50 -153 50 q-45 0 -72.5 -21 q-27.5 -21 -27.5 -54 l0 -2 q0 -14 8 -26 q8 -12 18 -20 q10 -8 31.5 -17 q21.5 -9 34.5 -13 q13 -4 41 -13 q29 -9 48.5 -16 q19.5 -7 44 -19.5 q24.5 -12.5 39 -27 q14.5 -14.5 24.5 -36.5 q10 -22 10 -49 l0 -2 q0 -72 -52 -113.5 q-52 -41.5 -132 -41.5 Z" /><glyph glyph-name="Tcommaaccent" unicode="&#x162;" d="M264 -243 l-7 30 q34 6 48.5 20.5 q14.5 14.5 12.5 39.5 l-40 0 l0 83 l90 0 l0 -71 q0 -91 -104 -102 ZM284 0 l0 627 l-235 0 l0 73 l550 0 l0 -73 l-235 0 l0 -627 l-80 0 Z" /><glyph glyph-name="tcommaaccent" unicode="&#x163;" d="M166 -243 l-7 30 q34 6 48.5 20.5 q14.5 14.5 12.5 39.5 l-40 0 l0 83 l90 0 l0 -71 q0 -91 -104 -102 ZM259 -9 q-67 0 -106.5 35.5 q-39.5 35.5 -39.5 110.5 l0 312 l-72 0 l0 68 l72 0 l0 156 l77 0 l0 -156 l164 0 l0 -68 l-164 0 l0 -302 q0 -86 87 -86 q38 0 75 18 l0 -66 q-42 -22 -93 -22 Z" /><glyph glyph-name="Tcaron" unicode="&#x164;" d="M470 880 l-110 -118 l-72 0 l-110 118 l72 0 l75 -60 l75 60 l70 0 ZM284 0 l0 627 l-235 0 l0 73 l550 0 l0 -73 l-235 0 l0 -627 l-80 0 Z" /><glyph glyph-name="tcaron" unicode="&#x165;" d="M293 584 l15 165 l74 0 l0 -3 l-52 -162 l-37 0 ZM259 -9 q-67 0 -106.5 35.5 q-39.5 35.5 -39.5 110.5 l0 312 l-72 0 l0 68 l72 0 l0 156 l77 0 l0 -156 l164 0 l0 -68 l-164 0 l0 -302 q0 -86 87 -86 q38 0 75 18 l0 -66 q-42 -22 -93 -22 Z" /><glyph glyph-name="Umacron" unicode="&#x16a;" d="M215 780 l0 64 l328 0 l0 -64 l-328 0 ZM379 -11 q-133 0 -212 79.5 q-79 79.5 -79 224.5 l0 407 l79 0 l0 -402 q0 -113 56.5 -174.5 q56.5 -61.5 157.5 -61.5 q99 0 155 59 q56 59 56 172 l0 407 l79 0 l0 -401 q0 -150 -79 -230 q-79 -80 -213 -80 Z" /><glyph glyph-name="umacron" unicode="&#x16b;" d="M276 -11 q-92 0 -145 56.5 q-53 56.5 -53 150.5 l0 321 l77 0 l0 -302 q0 -73 37.5 -114.5 q37.5 -41.5 105.5 -41.5 q67 0 111 45 q44 45 44 117 l0 296 l76 0 l0 -517 l-76 0 l0 90 q-63 -101 -177 -101 ZM147 615 l0 63 l312 0 l0 -63 l-312 0 Z" /><glyph glyph-name="Ubreve" unicode="&#x16c;" d="M482.5 784.5 q-40.5 -30.5 -103.5 -30.5 q-63 0 -103.5 30.5 q-40.5 30.5 -44.5 83.5 l60 0 q18 -52 88 -52 q70 0 88 52 l60 0 q-4 -53 -44.5 -83.5 ZM379 -11 q-133 0 -212 79.5 q-79 79.5 -79 224.5 l0 407 l79 0 l0 -402 q0 -113 56.5 -174.5 q56.5 -61.5 157.5 -61.5 q99 0 155 59 q56 59 56 172 l0 407 l79 0 l0 -401 q0 -150 -79 -230 q-79 -80 -213 -80 Z" /><glyph glyph-name="ubreve" unicode="&#x16d;" d="M276 -11 q-92 0 -145 56.5 q-53 56.5 -53 150.5 l0 321 l77 0 l0 -302 q0 -73 37.5 -114.5 q37.5 -41.5 105.5 -41.5 q67 0 111 45 q44 45 44 117 l0 296 l76 0 l0 -517 l-76 0 l0 90 q-63 -101 -177 -101 ZM406.5 626 q-40.5 -33 -103.5 -33 q-63 0 -103.5 33 q-40.5 33 -44.5 92 l56 0 q20 -63 92 -63 q72 0 92 63 l56 0 q-4 -59 -44.5 -92 Z" /><glyph glyph-name="Uring" unicode="&#x16e;" d="M379 -11 q-133 0 -212 79.5 q-79 79.5 -79 224.5 l0 407 l79 0 l0 -402 q0 -113 56.5 -174.5 q56.5 -61.5 157.5 -61.5 q99 0 155 59 q56 59 56 172 l0 407 l79 0 l0 -401 q0 -150 -79 -230 q-79 -80 -213 -80 ZM300.5 771.5 q-32.5 28.5 -32.5 70.5 q0 42 32.5 70.5 q32.5 28.5 78.5 28.5 q46 0 78.5 -28.5 q32.5 -28.5 32.5 -70.5 q0 -42 -32.5 -70.5 q-32.5 -28.5 -78.5 -28.5 q-46 0 -78.5 28.5 ZM331 885.5 q-19 -17.5 -19 -43.5 q0 -26 19.5 -43.5 q19.5 -17.5 47.5 -17.5 q28 0 47.5 17.5 q19.5 17.5 19.5 43.5 q0 26 -19 43.5 q-19 17.5 -48 17.5 q-29 0 -48 -17.5 Z" /><glyph glyph-name="uring" unicode="&#x16f;" d="M226 613 q-32 31 -32 74 q0 43 32 73.5 q32 30.5 77 30.5 q45 0 77 -30.5 q32 -30.5 32 -73.5 q0 -43 -32 -74 q-32 -31 -77 -31 q-45 0 -77 31 ZM254.5 735.5 q-20.5 -20.5 -20.5 -48.5 q0 -28 20.5 -48.5 q20.5 -20.5 48.5 -20.5 q28 0 48.5 20.5 q20.5 20.5 20.5 48.5 q0 28 -20.5 48.5 q-20.5 20.5 -48.5 20.5 q-28 0 -48.5 -20.5 ZM276 -11 q-92 0 -145 56.5 q-53 56.5 -53 150.5 l0 321 l77 0 l0 -302 q0 -73 37.5 -114.5 q37.5 -41.5 105.5 -41.5 q67 0 111 45 q44 45 44 117 l0 296 l76 0 l0 -517 l-76 0 l0 90 q-63 -101 -177 -101 Z" /><glyph glyph-name="Uhungarumlaut" unicode="&#x170;" d="M379 -11 q-133 0 -212 79.5 q-79 79.5 -79 224.5 l0 407 l79 0 l0 -402 q0 -113 56.5 -174.5 q56.5 -61.5 157.5 -61.5 q99 0 155 59 q56 59 56 172 l0 407 l79 0 l0 -401 q0 -150 -79 -230 q-79 -80 -213 -80 ZM262 759 l100 129 l77 -36 l-115 -93 l-62 0 ZM415 759 l101 129 l77 -36 l-115 -93 l-63 0 Z" /><glyph glyph-name="uhungarumlaut" unicode="&#x171;" d="M276 -11 q-92 0 -145 56.5 q-53 56.5 -53 150.5 l0 321 l77 0 l0 -302 q0 -73 37.5 -114.5 q37.5 -41.5 105.5 -41.5 q67 0 111 45 q44 45 44 117 l0 296 l76 0 l0 -517 l-76 0 l0 90 q-63 -101 -177 -101 ZM338 595 l95 145 l75 -37 l-110 -108 l-60 0 ZM189 595 l94 145 l75 -37 l-109 -108 l-60 0 Z" /><glyph glyph-name="Uogonek" unicode="&#x172;" d="M444 -164 q-67 -1 -103.5 20.5 q-36.5 21.5 -36.5 59.5 q0 38 37 75 q-117 11 -185 89 q-68 78 -68 213 l0 407 l79 0 l0 -402 q0 -113 56.5 -174.5 q56.5 -61.5 157.5 -61.5 q99 0 155 59 q56 59 56 172 l0 407 l79 0 l0 -401 q0 -142 -71 -221.5 q-71 -79.5 -193 -87.5 q-37 -33 -37 -63 q0 -43 74 -47 l0 -44 Z" /><glyph glyph-name="uogonek" unicode="&#x173;" d="M276 -11 q-92 0 -145 56.5 q-53 56.5 -53 150.5 l0 321 l77 0 l0 -302 q0 -73 37.5 -114.5 q37.5 -41.5 105.5 -41.5 q67 0 111 45 q44 45 44 117 l0 296 l76 0 l0 -517 l-12 0 q-48 -41 -48 -73 q0 -43 74 -47 l0 -44 q-67 -1 -103.5 20.5 q-36.5 21.5 -36.5 59.5 q0 42 50 87 l0 87 q-63 -101 -177 -101 Z" /><glyph glyph-name="Wcircumflex" unicode="&#x174;" d="M295 -5 l-250 705 l86 0 l200 -583 l192 585 l65 0 l192 -585 l200 583 l83 0 l-250 -705 l-67 0 l-192 568 l-193 -568 l-66 0 ZM407 762 l110 118 l72 0 l110 -118 l-72 0 l-75 60 l-75 -60 l-70 0 Z" /><glyph glyph-name="wcircumflex" unicode="&#x175;" d="M290 595 l106 131 l68 0 l106 -131 l-66 0 l-75 67 l-75 -67 l-64 0 ZM223 -4 l-181 521 l82 0 l136 -415 l139 417 l64 0 l140 -417 l136 415 l80 0 l-182 -521 l-67 0 l-139 408 l-140 -408 l-68 0 Z" /><glyph glyph-name="Ycircumflex" unicode="&#x176;" d="M318 0 l0 277 l-291 423 l96 0 l236 -350 l238 350 l92 0 l-291 -422 l0 -278 l-80 0 ZM212 759 l110 118 l72 0 l110 -118 l-72 0 l-75 60 l-75 -60 l-70 0 Z" /><glyph glyph-name="ycircumflex" unicode="&#x177;" d="M166 -163 q-56 0 -110 26 l26 61 q37 -19 81 -19 q35 0 59 21.5 q24 21.5 47 75.5 l-235 515 l85 0 l188 -431 l166 431 l82 0 l-217 -534 q-33 -79 -73 -112.5 q-40 -33.5 -99 -33.5 ZM158 595 l106 131 l68 0 l106 -131 l-66 0 l-75 67 l-75 -67 l-64 0 Z" /><glyph glyph-name="Ydieresis" unicode="&#x178;" d="M318 0 l0 277 l-291 423 l96 0 l236 -350 l238 350 l92 0 l-291 -422 l0 -278 l-80 0 ZM405 759 l0 90 l93 0 l0 -90 l-93 0 ZM218 759 l0 90 l93 0 l0 -90 l-93 0 Z" /><glyph glyph-name="Zacute" unicode="&#x179;" d="M67 0 l0 53 l453 576 l-438 0 l0 71 l546 0 l0 -53 l-454 -576 l454 0 l0 -71 l-561 0 ZM323 762 l100 129 l79 -36 l-115 -93 l-64 0 Z" /><glyph glyph-name="zacute" unicode="&#x17a;" d="M251 595 l94 145 l80 -37 l-114 -108 l-60 0 ZM56 0 l0 49 l343 403 l-331 0 l0 65 l436 0 l0 -49 l-344 -403 l344 0 l0 -65 l-448 0 Z" /><glyph glyph-name="Zdotaccent" unicode="&#x17b;" d="M306 762 l0 90 l96 0 l0 -90 l-96 0 ZM67 0 l0 53 l453 576 l-438 0 l0 71 l546 0 l0 -53 l-454 -576 l454 0 l0 -71 l-561 0 Z" /><glyph glyph-name="zdotaccent" unicode="&#x17c;" d="M56 0 l0 49 l343 403 l-331 0 l0 65 l436 0 l0 -49 l-344 -403 l344 0 l0 -65 l-448 0 ZM235 595 l0 96 l94 0 l0 -96 l-94 0 Z" /><glyph glyph-name="Zcaron" unicode="&#x17d;" d="M500 880 l-110 -118 l-72 0 l-110 118 l72 0 l75 -60 l75 60 l70 0 ZM67 0 l0 53 l453 576 l-438 0 l0 71 l546 0 l0 -53 l-454 -576 l454 0 l0 -71 l-561 0 Z" /><glyph glyph-name="zcaron" unicode="&#x17e;" d="M422 726 l-106 -131 l-68 0 l-106 131 l66 0 l75 -67 l75 67 l64 0 ZM56 0 l0 49 l343 403 l-331 0 l0 65 l436 0 l0 -49 l-344 -403 l344 0 l0 -65 l-448 0 Z" /><glyph glyph-name="florin" unicode="&#x192;" d="M93 -5 q-24 0 -52 4 l0 66 q19 -4 44 -4 q65 0 78 76 l44 236 l-98 0 l0 67 l109 0 l23 119 q14 76 51 111 q37 35 105 35 q48 0 81 -11 l0 -66 q-40 10 -69 10 q-39 0 -60 -21 q-21 -21 -30 -69 l-20 -108 l144 0 l0 -67 l-156 0 l-45 -244 q-13 -70 -49 -102 q-36 -32 -100 -32 Z" /><glyph glyph-name="Aringacute" unicode="&#x1fa;" d="M284 750 q0 42 32.5 70.5 q32.5 28.5 78.5 28.5 q46 0 78.5 -28.5 q32.5 -28.5 32.5 -70.5 q0 -59 -56 -86 l301 -664 l-85 0 l-82 185 l-381 0 l-83 -185 l-81 0 l300 664 q-55 27 -55 86 ZM234 256 l319 0 l-159 357 l-160 -357 ZM347 793.5 q-19 -17.5 -19 -43.5 q0 -26 19 -43.5 q19 -17.5 48 -17.5 q29 0 48 17.5 q19 17.5 19 43.5 q0 26 -19 43.5 q-19 17.5 -48 17.5 q-29 0 -48 -17.5 ZM359 879 l102 115 l77 -35 l-115 -80 l-64 0 Z" /><glyph glyph-name="aringacute" unicode="&#x1fb;" d="M257 831 l98 126 l77 -37 l-112 -89 l-63 0 ZM240 -11 q-78 0 -135.5 43 q-57.5 43 -57.5 118 l0 2 q0 81 60 125 q60 44 161 44 q80 0 158 -22 l0 16 q0 68 -40 104 q-40 36 -113 36 q-76 0 -157 -37 l-23 63 q96 44 188 44 q110 0 167 -57 q54 -54 54 -152 l0 -316 l-76 0 l0 77 q-69 -88 -186 -88 ZM255 51 q72 0 122 39 q50 39 50 100 l0 48 q-76 22 -151 22 q-71 0 -111 -28.5 q-40 -28.5 -40 -75.5 l0 -2 q0 -47 37.5 -75 q37.5 -28 92.5 -28 ZM212 624 q-32 31 -32 74 q0 43 32 73.5 q32 30.5 77 30.5 q45 0 77 -30.5 q32 -30.5 32 -73.5 q0 -43 -32 -74 q-32 -31 -77 -31 q-45 0 -77 31 ZM240.5 746.5 q-20.5 -20.5 -20.5 -48.5 q0 -28 20.5 -48.5 q20.5 -20.5 48.5 -20.5 q28 0 48.5 20.5 q20.5 20.5 20.5 48.5 q0 28 -20.5 48.5 q-20.5 20.5 -48.5 20.5 q-28 0 -48.5 -20.5 Z" /><glyph glyph-name="AEacute" unicode="&#x1fc;" d="M597 762 l100 129 l79 -36 l-115 -93 l-64 0 ZM17 0 l411 700 l552 0 l0 -72 l-409 0 l0 -239 l364 0 l0 -72 l-364 0 l0 -245 l414 0 l0 -72 l-494 0 l0 185 l-282 0 l-109 -185 l-83 0 ZM249 256 l242 0 l0 374 l-24 0 l-218 -374 Z" /><glyph glyph-name="aeacute" unicode="&#x1fd;" d="M444 595 l94 145 l80 -37 l-114 -108 l-60 0 ZM236 -11 q-75 0 -132 43 q-57 43 -57 118 l0 2 q0 81 59.5 125 q59.5 44 157.5 44 q67 0 153 -22 l0 16 q0 69 -39 104.5 q-39 35.5 -109 35.5 q-72 0 -153 -37 l-23 63 q96 44 184 44 q71 0 120.5 -28.5 q49.5 -28.5 68.5 -83.5 q31 53 83.5 84 q52.5 31 114.5 31 q111 0 175.5 -78 q64.5 -78 64.5 -196 q0 -15 -1 -27 l-410 0 q8 -79 59.5 -125.5 q51.5 -46.5 122.5 -46.5 q93 0 163 73 l48 -43 q-87 -97 -213 -97 q-62 0 -116 27.5 q-54 27.5 -89 76.5 q-43 -45 -106.5 -74 q-63.5 -29 -125.5 -29 ZM493 289 l333 0 q-7 75 -49.5 124.5 q-42.5 49.5 -115.5 49.5 q-66 0 -113 -49 q-47 -49 -55 -125 ZM251 51 q62 0 103.5 23 q41.5 23 82.5 69 q-18 45 -21 97 q-76 20 -144 20 q-68 0 -107.5 -28.5 q-39.5 -28.5 -39.5 -75.5 l0 -2 q0 -47 37.5 -75 q37.5 -28 88.5 -28 Z" /><glyph glyph-name="Oslashacute" unicode="&#x1fe;" d="M424 -12 q-127 0 -219 73 l-62 -66 l-83 0 l99 108 q-91 102 -91 245 l0 2 q0 149 101 255.5 q101 106.5 257 106.5 q128 0 219 -74 l62 67 l83 0 l-99 -108 q91 -102 91 -245 l0 -2 q0 -149 -101 -255.5 q-101 -106.5 -257 -106.5 ZM213 163 l381 416 q-72 61 -170 61 q-118 0 -196 -83.5 q-78 -83.5 -78 -204.5 l0 -2 q0 -107 63 -187 ZM426 60 q118 0 196 83.5 q78 83.5 78 204.5 l0 2 q0 107 -63 187 l-381 -416 q72 -61 170 -61 ZM393 772 l100 129 l79 -36 l-115 -93 l-64 0 Z" /><glyph glyph-name="oslashacute" unicode="&#x1ff;" d="M322 -12 q-90 0 -161 53 l-45 -46 l-77 0 l79 85 q-64 75 -64 176 l0 2 q0 111 77.5 190.5 q77.5 79.5 192.5 79.5 q93 0 161 -54 l45 49 l78 0 q-69 -73 -80 -86 q65 -75 65 -177 l0 -2 q0 -111 -78 -190.5 q-78 -79.5 -193 -79.5 ZM170 136 l268 283 q-52 42 -116 42 q-83 0 -136.5 -58.5 q-53.5 -58.5 -53.5 -142.5 l0 -2 q0 -67 38 -122 ZM324 56 q83 0 137 58.5 q54 58.5 54 141.5 l0 2 q0 68 -39 122 l-267 -283 q49 -41 115 -41 ZM292 595 l94 145 l80 -37 l-114 -108 l-60 0 Z" /><glyph glyph-name="Scommaaccent" unicode="&#x218;" d="M267 -244 l-7 30 q34 6 48.5 20.5 q14.5 14.5 12.5 39.5 l-40 0 l0 83 l90 0 l0 -71 q0 -91 -104 -102 ZM339 -10 q-161 0 -286 112 l49 58 q56 -51 112.5 -75 q56.5 -24 127.5 -24 q70 0 113 33.5 q43 33.5 43 85.5 l0 2 q0 51 -38 81 q-38 30 -144 52 q-124 27 -179.5 72.5 q-55.5 45.5 -55.5 129.5 l0 2 q0 83 65 137 q65 54 165 54 q139 0 246 -86 l-46 -61 q-93 76 -202 76 q-67 0 -108 -32.5 q-41 -32.5 -41 -80.5 l0 -2 q0 -52 39.5 -82 q39.5 -30 150.5 -54 q119 -26 173.5 -72.5 q54.5 -46.5 54.5 -125.5 l0 -2 q0 -89 -67 -143.5 q-67 -54.5 -172 -54.5 Z" /><glyph glyph-name="scommaaccent" unicode="&#x219;" d="M192 -243 l-7 30 q34 6 48.5 20.5 q14.5 14.5 12.5 39.5 l-40 0 l0 83 l90 0 l0 -71 q0 -91 -104 -102 ZM257 -10 q-56 0 -113.5 20.5 q-57.5 20.5 -100.5 55.5 l39 55 q88 -66 179 -66 q47 0 77 22.5 q30 22.5 30 59.5 l0 2 q0 35 -32.5 54 q-32.5 19 -96.5 37 q-39 11 -62 20 q-23 9 -52 25.5 q-29 16.5 -43 41.5 q-14 25 -14 59 l0 2 q0 66 49.5 107 q49.5 41 126.5 41 q100 0 186 -57 l-35 -58 q-77 50 -153 50 q-45 0 -72.5 -21 q-27.5 -21 -27.5 -54 l0 -2 q0 -14 8 -26 q8 -12 18 -20 q10 -8 31.5 -17 q21.5 -9 34.5 -13 q13 -4 41 -13 q29 -9 48.5 -16 q19.5 -7 44 -19.5 q24.5 -12.5 39 -27 q14.5 -14.5 24.5 -36.5 q10 -22 10 -49 l0 -2 q0 -72 -52 -113.5 q-52 -41.5 -132 -41.5 Z" /><glyph glyph-name="schwa" unicode="&#x259;" d="M459 290 q-8 79 -59.5 125.5 q-51.5 46.5 -122.5 46.5 q-93 0 -163 -73 l-48 43 q87 97 213 97 q109 0 183.5 -75.5 q74.5 -75.5 74.5 -194.5 q0 -113 -71 -191.5 q-71 -78.5 -177 -78.5 q-111 0 -176 78 q-65 78 -65 196 q0 15 1 27 l410 0 ZM459 228 l-333 0 q7 -75 49.5 -124.5 q42.5 -49.5 115.5 -49.5 q66 0 113 49 q47 49 55 125 Z" /><glyph glyph-name="circumflex" unicode="&#x2c6;" d="M110 595 l106 131 l68 0 l106 -131 l-66 0 l-75 67 l-75 -67 l-64 0 Z" /><glyph glyph-name="caron" unicode="&#x2c7;" d="M390 726 l-106 -131 l-68 0 l-106 131 l66 0 l75 -67 l75 67 l64 0 Z" /><glyph glyph-name="breve" unicode="&#x2d8;" d="M353.5 626 q-40.5 -33 -103.5 -33 q-63 0 -103.5 33 q-40.5 33 -44.5 92 l56 0 q20 -63 92 -63 q72 0 92 63 l56 0 q-4 -59 -44.5 -92 Z" /><glyph glyph-name="dotaccent" unicode="&#x2d9;" d="M203 595 l0 96 l94 0 l0 -96 l-94 0 Z" /><glyph glyph-name="ring" unicode="&#x2da;" d="M173 624 q-32 31 -32 74 q0 43 32 73.5 q32 30.5 77 30.5 q45 0 77 -30.5 q32 -30.5 32 -73.5 q0 -43 -32 -74 q-32 -31 -77 -31 q-45 0 -77 31 ZM201.5 746.5 q-20.5 -20.5 -20.5 -48.5 q0 -28 20.5 -48.5 q20.5 -20.5 48.5 -20.5 q28 0 48.5 20.5 q20.5 20.5 20.5 48.5 q0 28 -20.5 48.5 q-20.5 20.5 -48.5 20.5 q-28 0 -48.5 -20.5 Z" /><glyph glyph-name="ogonek" unicode="&#x2db;" d="M330 -164 q-67 -1 -103.5 20.5 q-36.5 21.5 -36.5 59.5 q0 45 65 100 l53 -13 q-52 -43 -52 -76 q0 -43 74 -47 l0 -44 Z" /><glyph glyph-name="tilde" unicode="&#x2dc;" d="M133 586 l-47 13 q15 56 37 80.5 q22 24.5 58 24.5 q24 0 71 -20 q47 -20 63 -20 q19 0 29.5 10.5 q10.5 10.5 22.5 38.5 l47 -13 q-15 -56 -37 -80.5 q-22 -24.5 -58 -24.5 q-24 0 -71 20 q-47 20 -63 20 q-19 0 -29.5 -10.5 q-10.5 -10.5 -22.5 -38.5 Z" /><glyph glyph-name="hungarumlaut" unicode="&#x2dd;" d="M241 595 l95 145 l75 -37 l-110 -108 l-60 0 ZM92 595 l94 145 l75 -37 l-109 -108 l-60 0 Z" /><glyph glyph-name="commaaccent" unicode="&#x326;" d="M191 -243 l-7 30 q34 6 48.5 20.5 q14.5 14.5 12.5 39.5 l-40 0 l0 83 l90 0 l0 -71 q0 -91 -104 -102 Z" /><glyph glyph-name="Wgrave" unicode="&#x1e80;" d="M485 891 l101 -129 l-64 0 l-115 93 l78 36 ZM295 -5 l-250 705 l86 0 l200 -583 l192 585 l65 0 l192 -585 l200 583 l83 0 l-250 -705 l-67 0 l-192 568 l-193 -568 l-66 0 Z" /><glyph glyph-name="wgrave" unicode="&#x1e81;" d="M223 -4 l-181 521 l82 0 l136 -415 l139 417 l64 0 l140 -417 l136 415 l80 0 l-182 -521 l-67 0 l-139 408 l-140 -408 l-68 0 ZM401 595 l-114 108 l80 37 l94 -145 l-60 0 Z" /><glyph glyph-name="Wacute" unicode="&#x1e82;" d="M521 762 l100 129 l79 -36 l-115 -93 l-64 0 ZM295 -5 l-250 705 l86 0 l200 -583 l192 585 l65 0 l192 -585 l200 583 l83 0 l-250 -705 l-67 0 l-192 568 l-193 -568 l-66 0 Z" /><glyph glyph-name="wacute" unicode="&#x1e83;" d="M398 595 l94 145 l80 -37 l-114 -108 l-60 0 ZM223 -4 l-181 521 l82 0 l136 -415 l139 417 l64 0 l140 -417 l136 415 l80 0 l-182 -521 l-67 0 l-139 408 l-140 -408 l-68 0 Z" /><glyph glyph-name="Wdieresis" unicode="&#x1e84;" d="M601 762 l0 90 l93 0 l0 -90 l-93 0 ZM414 762 l0 90 l93 0 l0 -90 l-93 0 ZM295 -5 l-250 705 l86 0 l200 -583 l192 585 l65 0 l192 -585 l200 583 l83 0 l-250 -705 l-67 0 l-192 568 l-193 -568 l-66 0 Z" /><glyph glyph-name="wdieresis" unicode="&#x1e85;" d="M473 595 l0 95 l89 0 l0 -95 l-89 0 ZM298 595 l0 95 l89 0 l0 -95 l-89 0 ZM223 -4 l-181 521 l82 0 l136 -415 l139 417 l64 0 l140 -417 l136 415 l80 0 l-182 -521 l-67 0 l-139 408 l-140 -408 l-68 0 Z" /><glyph glyph-name="Ygrave" unicode="&#x1ef2;" d="M318 0 l0 277 l-291 423 l96 0 l236 -350 l238 350 l92 0 l-291 -422 l0 -278 l-80 0 ZM289 888 l101 -129 l-64 0 l-115 93 l78 36 Z" /><glyph glyph-name="ygrave" unicode="&#x1ef3;" d="M166 -163 q-56 0 -110 26 l26 61 q37 -19 81 -19 q35 0 59 21.5 q24 21.5 47 75.5 l-235 515 l85 0 l188 -431 l166 431 l82 0 l-217 -534 q-33 -79 -73 -112.5 q-40 -33.5 -99 -33.5 ZM269 595 l-114 108 l80 37 l94 -145 l-60 0 Z" /><glyph glyph-name="endash" unicode="&#x2013;" d="M65 262 l0 77 l398 0 l0 -77 l-398 0 Z" /><glyph glyph-name="emdash" unicode="&#x2014;" d="M65 262 l0 77 l768 0 l0 -77 l-768 0 Z" /><glyph glyph-name="quoteleft" unicode="&#x2018;" d="M72 478 l0 90 q0 60 26 92 q26 32 84 45 l12 -35 q-37 -13 -53 -34 q-16 -21 -14 -53 l37 0 l0 -105 l-92 0 Z" /><glyph glyph-name="quoteright" unicode="&#x2019;" d="M63 473 l-12 35 q73 26 67 87 l-36 0 l0 105 l92 0 l0 -90 q0 -60 -26.5 -92 q-26.5 -32 -84.5 -45 Z" /><glyph glyph-name="quotesinglbase" unicode="&#x201a;" d="M58 -122 l-12 35 q73 26 67 87 l-36 0 l0 105 l92 0 l0 -90 q0 -60 -26.5 -92 q-26.5 -32 -84.5 -45 Z" /><glyph glyph-name="quotedblleft" unicode="&#x201c;" d="M272 478 l0 90 q0 60 26 92 q26 32 84 45 l12 -35 q-37 -13 -53 -34 q-16 -21 -14 -53 l36 0 l0 -105 l-91 0 ZM72 478 l0 90 q0 60 26 92 q26 32 84 45 l12 -35 q-37 -13 -53 -34 q-16 -21 -14 -53 l37 0 l0 -105 l-92 0 Z" /><glyph glyph-name="quotedblright" unicode="&#x201d;" d="M263 473 l-12 35 q73 26 67 87 l-36 0 l0 105 l91 0 l0 -90 q0 -60 -26 -92 q-26 -32 -84 -45 ZM63 473 l-12 35 q73 26 67 87 l-36 0 l0 105 l92 0 l0 -90 q0 -60 -26.5 -92 q-26.5 -32 -84.5 -45 Z" /><glyph glyph-name="quotedblbase" unicode="&#x201e;" d="M258 -122 l-12 35 q73 26 67 87 l-36 0 l0 105 l91 0 l0 -90 q0 -60 -26 -92 q-26 -32 -84 -45 ZM58 -122 l-12 35 q73 26 67 87 l-36 0 l0 105 l92 0 l0 -90 q0 -60 -26.5 -92 q-26.5 -32 -84.5 -45 Z" /><glyph glyph-name="dagger" unicode="&#x2020;" d="M178 238 l6 282 l-124 -8 l0 55 l123 -8 l-9 141 l62 0 l-9 -141 l123 8 l0 -55 l-124 8 l6 -282 l-54 0 Z" /><glyph glyph-name="daggerdbl" unicode="&#x2021;" d="M184 0 l9 141 l-123 -8 l0 55 l124 -8 l-6 170 l6 170 l-124 -8 l0 55 l123 -8 l-9 141 l62 0 l-9 -141 l123 8 l0 -55 l-124 8 l6 -170 l-6 -170 l124 8 l0 -55 l-123 8 l9 -141 l-62 0 Z" /><glyph glyph-name="bullet" unicode="&#x2022;" d="M331.5 259 q-38.5 -38 -92.5 -38 q-54 0 -92.5 38 q-38.5 38 -38.5 92 l0 2 q0 54 39 92 q39 38 92 38 q52 0 91.5 -38.5 q39.5 -38.5 39.5 -91.5 l0 -2 q0 -54 -38.5 -92 Z" /><glyph glyph-name="ellipsis" unicode="&#x2026;" d="M557 0 l0 103 l90 0 l0 -103 l-90 0 ZM317 0 l0 103 l89 0 l0 -103 l-89 0 ZM77 0 l0 103 l89 0 l0 -103 l-89 0 Z" /><glyph glyph-name="perthousand" unicode="&#x2030;" d="M324 403 q-45 -53 -114 -53 q-69 0 -113.5 52 q-44.5 52 -44.5 125 l0 2 q0 73 45 126 q45 53 115 53 q69 0 113 -52 q44 -52 44 -125 l0 -2 q0 -73 -45 -126 ZM124 0 l514 700 l71 0 l-513 -700 l-72 0 ZM999 -8 q-69 0 -113 52 q-44 52 -44 125 l0 2 q0 73 45 126 q45 53 114 53 q69 0 113 -52 q44 -52 44 -125 l0 -2 q0 -74 -44.5 -126.5 q-44.5 -52.5 -114.5 -52.5 ZM622 -8 q-69 0 -113 52 q-44 52 -44 125 l0 2 q0 73 45 126 q45 53 114 53 q69 0 113 -52 q44 -52 44 -125 l0 -2 q0 -74 -44.5 -126.5 q-44.5 -52.5 -114.5 -52.5 ZM212 406 q40 0 65.5 35 q25.5 35 25.5 86 l0 2 q0 52 -27 87.5 q-27 35.5 -66 35.5 q-40 0 -65.5 -35 q-25.5 -35 -25.5 -86 l0 -2 q0 -52 27 -87.5 q27 -35.5 66 -35.5 ZM1001 48 q40 0 65.5 35 q25.5 35 25.5 86 l0 2 q0 52 -27 87.5 q-27 35.5 -66 35.5 q-40 0 -65.5 -35 q-25.5 -35 -25.5 -86 l0 -2 q0 -52 27 -87.5 q27 -35.5 66 -35.5 ZM624 48 q40 0 65.5 35 q25.5 35 25.5 86 l0 2 q0 52 -27 87.5 q-27 35.5 -66 35.5 q-40 0 -65.5 -35 q-25.5 -35 -25.5 -86 l0 -2 q0 -52 27 -87.5 q27 -35.5 66 -35.5 Z" /><glyph glyph-name="guilsinglleft" unicode="&#x2039;" d="M210 41 l-162 214 l0 8 l162 213 l59 -33 l-135 -183 l135 -185 l-59 -34 Z" /><glyph glyph-name="guilsinglright" unicode="&#x203a;" d="M117 41 l-58 33 l135 184 l-135 184 l58 34 l162 -213 l0 -8 l-162 -214 Z" /><glyph glyph-name="fraction" unicode="&#x2044;" d="M-40 0 l248 359 l228 341 l54 0 l-248 -359 l-228 -341 l-54 0 Z" /><glyph glyph-name="Euro" unicode="&#x20ac;" d="M430 -12 q-105 0 -180.5 68 q-75.5 68 -102.5 181 l-91 0 l0 63 l81 0 q-2 16 -2 48 l0 2 q0 35 4 58 l-83 0 l0 62 l94 0 q29 108 103 175 q74 67 172 67 q149 0 241 -137 l-60 -43 q-40 56 -81.5 82.5 q-41.5 26.5 -102.5 26.5 q-65 0 -116 -47 q-51 -47 -75 -124 l257 0 l0 -62 l-270 0 q-4 -21 -4 -56 l0 -2 q0 -18 2 -50 l272 0 l0 -63 l-259 0 q23 -82 77 -130 q54 -48 127 -48 q56 0 97.5 29 q41.5 29 80.5 86 l57 -40 q-46 -69 -102.5 -107.5 q-56.5 -38.5 -135.5 -38.5 Z" /><glyph glyph-name="published" unicode="&#x2117;" d="M671 94.5 q-106 -106.5 -257 -106.5 q-151 0 -256 105.5 q-105 105.5 -105 254.5 l0 2 q0 149 106 255.5 q106 106.5 257 106.5 q151 0 256 -105.5 q105 -105.5 105 -254.5 l0 -2 q0 -149 -106 -255.5 ZM414 19 q140 0 235 97 q95 97 95 234 l0 2 q0 137 -94.5 233 q-94.5 96 -233.5 96 q-140 0 -235 -97 q-95 -97 -95 -234 l0 -2 q0 -137 94.5 -233 q94.5 -96 233.5 -96 ZM292 172 l0 371 l146 0 q66 0 105 -32 q39 -32 39 -88 l0 -2 q0 -59 -43.5 -91.5 q-43.5 -32.5 -107.5 -32.5 l-83 0 l0 -125 l-56 0 ZM348 347 l84 0 q43 0 68.5 19.5 q25.5 19.5 25.5 53.5 l0 2 q0 71 -93 71 l-85 0 l0 -146 Z" /><glyph glyph-name="servicemark" unicode="&#x2120;" d="M166 387 q-76 0 -134 50 l26 31 q51 -43 109 -43 q31 0 49.5 13.5 q18.5 13.5 18.5 35.5 q0 20 -17 32 q-17 12 -63 22 q-56 12 -82 31.5 q-26 19.5 -26 57.5 q0 38 30.5 63 q30.5 25 79.5 25 q65 0 113 -39 l-25 -32 q-42 33 -90 33 q-29 0 -46.5 -13 q-17.5 -13 -17.5 -33 q0 -20 17 -32.5 q17 -12.5 64 -22.5 q54 -12 80.5 -32 q26.5 -20 26.5 -56 q0 -41 -32.5 -66 q-32.5 -25 -80.5 -25 ZM353 392 l0 308 l47 0 l110 -169 l109 169 l46 0 l0 -308 l-43 0 l0 236 l-110 -167 l-6 0 l-109 167 l0 -236 l-44 0 Z" /><glyph glyph-name="trademark" unicode="&#x2122;" d="M336 392 l0 308 l47 0 l110 -169 l109 169 l46 0 l0 -308 l-43 0 l0 236 l-110 -167 l-6 0 l-109 167 l0 -236 l-44 0 ZM125 392 l0 266 l-99 0 l0 42 l242 0 l0 -42 l-99 0 l0 -266 l-44 0 Z" /><glyph glyph-name="minus" unicode="&#x2212;" d="M557 315 l-489 0 l0 74 l489 0 l0 -74 Z" /><glyph glyph-name="f_f" unicode="&#xfb00;" d="M483 0 l0 449 l-71 0 l0 67 l71 0 l0 45 q0 89 44 133 q42 40 111 40 q50 0 85 -13 l0 -67 q-44 13 -74 13 q-90 0 -90 -110 l0 -42 l163 0 l0 -66 l-163 0 l0 -449 l-76 0 ZM115 0 l0 449 l-71 0 l0 67 l71 0 l0 45 q0 88 45 133 q40 40 111 40 q49 0 85 -13 l0 -67 q-46 13 -75 13 q-90 0 -90 -110 l0 -42 l164 0 l0 -66 l-163 0 l0 -449 l-77 0 Z" /><glyph glyph-name="fi" unicode="&#xfb01;" d="M455 630 l0 85 l88 0 l0 -85 l-88 0 ZM115 0 l0 449 l-71 0 l0 67 l71 0 l0 45 q0 88 45 133 q40 40 111 40 q49 0 85 -13 l0 -67 q-46 13 -75 13 q-90 0 -90 -110 l0 -42 l164 0 l0 -66 l-163 0 l0 -449 l-77 0 ZM461 0 l0 517 l76 0 l0 -517 l-76 0 Z" /><glyph glyph-name="fl" unicode="&#xfb02;" d="M115 0 l0 449 l-71 0 l0 67 l71 0 l0 45 q0 88 45 133 q40 40 111 40 q49 0 85 -13 l0 -67 q-46 13 -75 13 q-90 0 -90 -110 l0 -42 l164 0 l0 -66 l-163 0 l0 -449 l-77 0 ZM461 0 l0 730 l76 0 l0 -730 l-76 0 Z" /><glyph glyph-name="f_f_i" unicode="&#xfb03;" d="M823 630 l0 85 l87 0 l0 -85 l-87 0 ZM483 0 l0 449 l-71 0 l0 67 l71 0 l0 45 q0 89 44 133 q42 40 111 40 q50 0 85 -13 l0 -67 q-44 13 -74 13 q-90 0 -90 -110 l0 -42 l163 0 l0 -66 l-163 0 l0 -449 l-76 0 ZM115 0 l0 449 l-71 0 l0 67 l71 0 l0 45 q0 88 45 133 q40 40 111 40 q49 0 85 -13 l0 -67 q-46 13 -75 13 q-90 0 -90 -110 l0 -42 l164 0 l0 -66 l-163 0 l0 -449 l-77 0 ZM828 0 l0 517 l77 0 l0 -517 l-77 0 Z" /><glyph glyph-name="f_f_l" unicode="&#xfb04;" d="M483 0 l0 449 l-71 0 l0 67 l71 0 l0 45 q0 89 44 133 q42 40 111 40 q50 0 85 -13 l0 -67 q-44 13 -74 13 q-90 0 -90 -110 l0 -42 l163 0 l0 -66 l-163 0 l0 -449 l-76 0 ZM115 0 l0 449 l-71 0 l0 67 l71 0 l0 45 q0 88 45 133 q40 40 111 40 q49 0 85 -13 l0 -67 q-46 13 -75 13 q-90 0 -90 -110 l0 -42 l164 0 l0 -66 l-163 0 l0 -449 l-77 0 ZM828 0 l0 730 l77 0 l0 -730 l-77 0 Z" /></font>
</defs>
</svg>
